<?xml version="1.0" encoding="UTF-8"?><svg id="Layer_652" xmlns="http://www.w3.org/2000/svg" width="1630.85" height="1377.25" viewBox="0 0 1630.85 1377.25"><defs><style>.cls-1{fill:#0190ff;}.cls-2{fill:#fefdfd;}.cls-3{fill:#fc7e01;}.cls-4{fill:#d2686d;}.cls-5{fill:#fd7e01;}.cls-6{fill:#441d11;}</style></defs><rect class="cls-1" x="437.61" y="239.16" width="1080" height="1080"/><g id="Layer_654"><g><path class="cls-6" d="m568.63,649.82c-.23-10.6,2.3-20.89,3.62-31.31,1.05-8.24,2.68-16.41,3.67-24.66,1.48-12.3,4.32-24.31,7.04-36.37,3.22-14.28,8.03-27.95,14.8-40.86,5.04-9.61,12.95-12.05,23.55-8.68,10.25,3.26,18.4,9.33,24.98,17.63,8.61,10.87,14.25,23.21,18.91,36.27,4.72,13.23,8.38,26.69,11.14,40.39,1.58,7.82,3.35,15.66,3.8,23.68.06,1.05-.84,2.42.58,3.13,1.59.79,2.44-.57,3.32-1.48,5.86-6.05,12.79-10.3,20.79-12.94,2.84-.94,5.62-1.49,8.63-1.52,12-.12,24.01-.59,35.46,4.05,2.76,1.12,5.55,2.18,8.25,3.44,4.17,1.94,6.59,1.16,7.53-3.18,3.55-16.35,10.06-31.61,17.33-46.51,15.1-30.91,35.35-57.58,65.46-75.45,6.79-4.03,14.29-6.97,21.67-9.86,3.42-1.34,6.72-.92,9.28,3.12,16.21,25.63,28.79,52.74,35.6,82.44,2.39,10.41,4.18,20.81,5.16,31.47.76,8.3,1.1,16.58.61,24.78-.78,12.99-2.89,25.81-6.63,38.42-3.26,11.02-7.3,21.64-12.46,31.85-1.74,3.44-.09,3.87,2.52,3.42,7.89-1.37,15.76-2.92,23.62-4.44,19.32-3.73,38.78-6.52,58.19-9.68,11.79-1.92,23.59-3.77,35.42-5.41,7.29-1.01,14.64-1.65,21.96-2.41,12.85-1.34,25.67-3.07,38.55-3.81,8.06-.47,16.19-.54,24.34.44,7.5.9,15.06,1.17,22.59,2.25,19.36,2.79,38.86,3.56,58.05,8.72,22.61,6.08,43.51,14.83,61.96,29.12,22.02,17.06,36.46,39.4,43.61,66.19,3.32,12.44,4.98,25.19,5.69,38.25,1.35,24.87-3.54,48.71-8.76,72.64-.73,3.34-.67,6.87-2.48,9.99-.41.7-.22,2.09.22,2.88,7.64,13.85,6.41,28.39,3.82,43.17-.65,3.68.17,7.61.14,11.42-.11,15.33-.23,30.66-.48,45.98-.12,7.14-.46,14.28-.83,21.42-.23,4.46-1.69,8.71-5.01,11.64-6.5,5.71-12.11,12.3-18.44,18.12-10.54,9.69-23.15,12.74-37.14,9.43-5.58-1.32-11.01-1.13-16.53.44-8.24,2.35-17.7-.21-20.71-6.2-3.35-6.66-5.95-13.74-6.1-21.42-.11-5.73-.95-11.61,4.57-16.51-2.84-.24-3.85,1.36-4.67,2.47-10.24,13.85-24.56,20.18-41.01,23.26-11.62,2.18-23.07,2.93-34.6,0-5.35-1.36-9.68-5.49-15.43-5.79-10.12-.53-15.74-6.5-18.95-15.51-2.07-5.8-.61-11.23,1.64-16.54,3.02-7.13,3.1-7.06-4.45-7.14-7.95-.09-15.67.78-23.52,2.54-6.92,1.56-14.3,1.66-21.47,2.32-17.07,1.59-34.2,2.77-51.34,3.32-15.64.5-31.33.34-46.98-.26-16.77-.64-33.34-3.24-49.45-8.15-2.47-.75-5.25-.48-7.42-2.39-.95-.83-2.06-.28-3.14.5-6.85,4.97-11.51,11.47-14.94,19.19-3.65,8.23-6.84,16.59-9.91,25.04-3.32,9.15-10.91,14.57-19.35,18.99-15.52,8.12-32.01,10.89-48.55,5.6-10.08-3.22-19.86-4.6-30.26-4.89-8.5-.24-15.72-4.46-19.29-12.55-1.63-3.71-4.02-3.77-6.62-3.04-3.81,1.07-7.42,1.29-11.06-.16-4.9-1.95-9.64-.8-14.48.35-16.14,3.81-28.48-8.68-27.98-22.1.37-9.83,5.94-18.18,12.89-25.26,4.88-4.97,4.92-5.7,1.41-11.97-3.63-6.49-9.18-11.68-12.27-18.57-5.95-13.26-9.44-26.99-8.39-41.6.44-6.1-1.07-11.2-4.76-16.21-5.98-8.13-10.36-17.23-13.6-26.81-1.2-3.56-3.35-5.41-7.16-5.84-24.2-2.68-46.38-11.04-66.25-24.97-11.18-7.83-19.53-18.47-22.38-32.02-1.21-5.73-1.84-10-8.66-10.02-.31,0-.65-.16-.94-.32-2.96-1.65-7.98-2.51-7.73-5.98.28-3.78,4.53-6.52,8.32-7.71,6.38-1.99,7.32-7.31,8.06-12.43.63-4.37-2.5-7.27-6.08-9.39-4.42-2.62-9.14-4.79-12.32-9.12-3.23-4.4-2.66-6.06,2.56-7.45,7.37-1.97,14.42.52,21.47,1.78,7.08,1.27,8.57,1.37,12.04-4.59,7.06-12.11,14.47-23.96,23.52-34.72,2.36-2.81,4.68-5.66,7.68-7.82,3.57-2.58,2.88-5.1.2-7.82-3.71-3.78-7.38-7.57-10.74-11.7-10.32-12.7-15.06-27.17-14.61-43.45.85-1.5.76-3.02.1-4.55Zm103.18-10.57c-2.03-6.13-4.14-12.24-6.06-18.4-10.03-32.14-26.31-60.93-46.68-87.56-2.33-3.05-3.92-3.15-5.49.62-2.62,6.31-4.64,12.8-6.45,19.37-7.21,26.21-13.32,52.69-18.73,79.32-1.17,5.74-1.44,12.25.02,17.84,4.31,16.43,10.52,32.27,20.83,46.01,4.93,6.57,4.69,12.48.59,19.23-13.21,21.76-25.37,44.08-35.06,67.68-.75,1.82-2.05,3.52-.8,5.61-3.9,7.31-5.58,15.22-7.21,23.3-1.98,9.82,0,17.83,7.44,24.45,5.5,4.89,11.75,8.93,18.27,12.01,20.9,9.86,43.06,15.82,65.88,19.29,5.7.87,6.61-.05,6.63-5.89,0-1.83,0-3.67-.02-5.5-.03-7.31-1.98-9.68-9.41-10.42-2.59-.26-4.54-1.34-5.93-3.1-4.72-5.97-9.21-12.2-12.19-19.2-1.41-3.33-4.73-7.06-3.02-10.52,3.06-6.21,7.63-11.43,14.89-13.41,12.81-3.5,25.49-2.26,37.96,1.38,13.95,4.08,18.53,10.02,15.48,22.36-1.99,8.03-4.42,16.44-14.41,19.92-7.25,2.53-12.34,8.66-14.83,16.33-1.52,4.68,2.1,10.99,6.69,11.04,15.99.16,32.01.58,47.97-.09,16.2-.68,32.36-2.55,48.53-3.9,4.59-.38,9.23-.43,13.75-1.17,14.99-2.46,29.86-6.45,44.94-7.4,14.64-.93,31.65-22.75,30.39-36.51,5.86-6.87,6.74-15.6,6.99-23.78.53-18.02-4.08-35.64-6.26-53.46-.85-6.94-.7-13.48,2.08-20.01,3.86-9.06,8.45-17.72,13.7-26.02,5.2-8.23,7.83-17.13,7.61-26.84-.16-7.29-.36-14.57-.74-21.86-1.04-20.01-2.23-39.91-4.94-59.82-2.58-18.91-6.87-37.2-13.54-54.96-3.51-9.36-8.07-18.26-14.66-25.95-1.99-2.32-4.17-3.61-6.68-.88-5.28,5.76-11.19,11.13-15.53,17.54-14.17,20.94-27.97,42.14-40.72,64-8.81,15.1-16.91,30.55-23.27,46.87-.96,2.45-1.96,4.98-5.66,4.28-16.45-3.09-33-4.93-49.78-3.93-2.59-.79-5.23-.36-7.86-.34-11.63.08-23.18,1.24-34.72,2.49Zm183.74,235c-10.97,3.73-21.43,8.17-26.92,19.5-.42.88-1.23,1.56-1.82,2.37-12.14,16.66-25.4,32.4-39.02,47.85-1.11-.06-1.84.56-2.52,1.32-4.5,5.07-9.67,9.4-15.67,12.51-3.39,1.76-6.98,4.88-11.22,2.07-19.62-12.99-39.23-26-56.04-42.67-2.96-2.93-5.58-2.9-8.63-.29-3.79,3.24-7.79,6.11-12.68,7.63-3.49,1.09-4.91,3.76-5.12,7.48-.22,3.88.91,7.53,1.28,11.3.79,8.04,2.55,15.83,7.3,22.68,5.27,7.6,10.36,15.33,14.47,23.66,4.59,9.31,4.3,16.18-1.85,20.43-5.87,4.06-9.51,9.67-12.92,15.59-2.16,3.75-.2,7.01,4.24,7.36,3.36.26,6.54-.45,9.65-1.63,3.3-1.26,6.49-1.6,10-.22,9.65,3.77,13.34,2.4,18.71-6.64,2.84-4.79,6.27-8.63,11.5-11.17,7.22-3.5,11.61-9.08,10.79-17.88-.32-3.48-1.64-6.65-2.04-10.29,2.98-.26,5.88-.38,8.82.56,5.33,1.7,10.81,2.44,16.44,2.3,7.76-.2,8.22-.06,10.75,7.35,4.67,13.68,3.15,18.64-8.63,25.82-3.26,1.99-6.65,3.77-9.94,5.71-6.93,4.09-14.6,7.01-20.48,12.78-1.48,1.45-3.99,2.45-2.93,5.16,1.03,2.62,3.49,3.57,6.06,3.68,3.82.17,7.67.16,11.49-.07,6.74-.41,12.98.65,18.9,4.27,4.2,2.57,9.27,3.12,14.1,3.19,11.04.16,20.89-3.77,29.93-9.87,5.13-3.46,8.78-7.73,8.79-14.55,0-1.73,1-3.95,1.89-5.91,4.64-10.29,10.95-19.57,16.57-29.27,2.08-3.6,4.07-4.45,7.61-4.31,10.58.4,20.94-.76,31.18-3.69,3.5-1,7.38-2.15,11.21-1.15,11.35,2.96,23.08,3.64,34.6,3.64,33.15-.02,66.32,1.94,99.44-2.54,16.84-2.28,33.99-1.65,50.71-6.04,13.56-3.56,27.82-4.3,41.07-9.34,4.02-1.53,7.99-3.04,12.39-2.86,1.3.06,2.74-.32,3.58,1.11,1.04,1.76-.5,2.3-1.51,3.05-1.66,1.23-1.21,3.01-1.13,4.6.19,3.68-1.03,6.87-3.33,9.59-5.69,6.73-12.82,11.59-21.01,14.64-8.17,3.04-16.62,5.46-21.16,13.86-.91,1.68-3.4,2.9-1.85,5.57,1.61,2.76,3.8,4.1,6.99,3.58,4.39-.73,8.04,1.12,11.63,3.25,1.55.92,3.07,2.46,4.7,2.62,19.06,1.88,37.65,1.21,53.25-12.02,2.31-1.96,3.92-2.02,6.57-.96,4.17,1.69,8.48,2.23,12.66-.68.95-.67,2.51-1.89,4.09-.85.47,1.64-2.26,2.5-.98,4.48,3.38-2.55,6.57-5.25,10.04-7.49,2.56-1.65,3.53-3.57,3.4-6.58-.14-3.07-.68-6.28.97-9.21,3.5-6.25,7.62-12.17,9.44-19.28.23-.89,1.28-2.38,3.17-2.29,2.23,8.33,3.19,16.79,3.54,25.5.49,12.04-1.42,22.28-13.31,28.38-2.91,1.49-6.47,3.49-2.97,7.99.7.91.35,3.01-.11,4.36-.82,2.45-1.81,4.88.81,6.63,2.5,1.68,5.57.69,7.48-.66,5.49-3.88,10.96-4.1,16.51-.91,8.11,4.65,15.36,2.59,22.65-1.94,6.19-3.85,10.05-10.13,15.63-14.54,4.34-3.43,5.62-7.68,5.62-13.05-.01-22.15.27-44.3.51-66.45.02-2.27.48-4.59.67-6.79.57-6.6,2.92-12.93,1.68-19.89-1.46-8.21-6.44-14.26-10.4-20.99-1.27-2.17-2.1-3.81-1.19-6.74,4.37-14.1,7.64-28.48,7.19-43.4-.14-4.43-.74-8.84-1.13-13.26.69-13.73-1.66-27.11-4.9-40.35-11.51-47.14-40.93-78.43-85.56-96.09-11.57-4.58-23.79-5.61-36.08-6.91-15.42-1.62-30.9-2.9-46.34-3.61-21.23-.97-42.6-1.4-63.78,1-7.58.86-15.22.2-22.76,1.77-8.1,1.69-16.35,2.69-24.55,3.91-35.96,5.35-69.76,16.64-100.48,36.45-6.41,4.13-6.64,4.75-3.91,12.14,4.09,11.07,7.11,22.41,8.62,34.13.86,6.67.81,6.7,7.05,5.59,1.3-.23,2.65-.15,3.98-.21,9.81-.43,19.41,1.02,29.01,2.9,4.84.95,6.99,3.5,5.3,8.2-1.96,5.47-6.38,7.48-11.73,7.62-8.32.21-16.66.33-24.98.15-4.48-.1-7,1.1-6.83,6.1.08,2.33-.58,4.7-.97,7.04-.57,3.42.31,5.72,4.31,5.31,8.74-.89,17.16,1.23,25.64,2.71,3.36.59,5.2,2.53,5.27,6.17.11,5.97-3.23,9.66-9.37,9.79-9.49.2-18.98.28-28.48.38-2.39.03-4.68.1-6,2.61-3.86,7.32-9.76,12.98-15.37,18.88-4,2.06-7.71,4.56-11.26,7.31Zm-104.08,14.81s0-.05,0-.08c-10.16,0-20.32-.04-30.48.01-8.1.04-10.06,6.78-12.59,12.35-1.96,4.31,2.53,6.12,4.94,8.22,15.45,13.47,32.12,25.33,49.26,36.55,2.49,1.63,4.24,1.1,6.04-.97,16.35-18.86,32.73-37.7,49.09-56.55.63-.72,1.64-1.48.96-2.56-.69-1.1-1.83-.43-2.71-.17-11.47,3.36-23.38,1.72-35.06,2.98-9.71,1.05-19.63.21-29.45.21Zm-93.26-3.16c-2.31-.13-4.75-.21-4.01,3.2,1.98,9.22,5.12,17.89,12.51,24.36,3.15,2.76,6.69,3.64,10.61,1.93,10.59-4.62,18.54-12.06,23.84-22.37,1.61-3.13.66-4.17-2.64-4.16-4.97.01-9.97.56-14.91-.48-2.63-.55-3.09,1.36-3.32,3.24-.5,4.09-.83,8.2-1.31,12.29-.16,1.34.94,3.28-1.11,3.86-1.65.47-3.35-.27-4.62-1.36-1.82-1.56-2.86-3.6-2.87-6.11,0-3.32-.12-6.64-.2-9.97-.03-1.54-.08-3.33-2.18-3.16-3.38.27-6.51-1.01-9.79-1.26Z"/><path class="cls-6" d="m1354.59,721.12c-8.78.15-12.29-6.05-15.7-12.04-6.28-11.05-12.62-22.06-20.8-31.84-3.33-3.98-4.42-8.46-2.72-12.92,2.21-5.78,6.43-9.81,13.22-10.29,8.83-.61,15.56,3.7,21.76,9.12,10.82,9.45,15.25,22.03,17.66,35.76.89,5.09.99,9.75-1.21,14.42-2.52,5.37-6.58,8.18-12.23,7.78Z"/><path class="cls-6" d="m1398.89,876.2c-.86,17.74-6.87,33.07-21.54,43.88-4.96,3.65-10.73,5.92-17.27,6.08-6.56.16-10.04-3.57-12.57-8.66-2.39-4.81-3.59-9.33.99-14.28,9.91-10.7,16.37-23.82,23.97-36.14,4.22-6.84,11.41-9.77,20.02-6.7,4.58,1.63,5.87,5.91,6.37,10.33.2,1.81.03,3.66.03,5.49Z"/><path class="cls-6" d="m1430.81,910.63c-.07,10.53-10.49,21.33-20.7,21.44-5.71.06-11.24-8.68-8.56-14.07,3.52-7.08,7.36-14.01,11.36-20.84,3.18-5.43,6.79-5.66,11-.88,3.61,4.11,6.59,8.61,6.91,14.35Z"/><path class="cls-6" d="m1398.84,669.14c1.35,7.14-3.62,11.66-8.03,16.2-2.72,2.8-5.98,2.7-8.13-1.12-4.53-8.03-9.1-16.06-13.39-24.22-1.66-3.15,2.13-8.45,6.52-9.97,11.13-3.85,24.77,6.5,23.03,19.12Z"/><path class="cls-4" d="m568.63,649.82c.66,1.53.75,3.05-.1,4.55-.72-1.53-.85-3.05.1-4.55Z"/><path class="cls-5" d="m866.81,866.94c5.61-5.9,11.52-11.56,15.37-18.88,1.32-2.51,3.61-2.59,6-2.61,9.49-.1,18.99-.19,28.48-.38,6.14-.13,9.48-3.82,9.37-9.79-.07-3.64-1.91-5.59-5.27-6.17-8.48-1.48-16.89-3.6-25.64-2.71-4,.41-4.88-1.88-4.31-5.31.39-2.34,1.05-4.71.97-7.04-.18-5,2.35-6.19,6.83-6.1,8.32.18,16.65.06,24.98-.15,5.36-.13,9.78-2.15,11.73-7.62,1.68-4.7-.46-7.26-5.3-8.2-9.6-1.88-19.2-3.33-29.01-2.9-1.33.06-2.68-.02-3.98.21-6.24,1.11-6.19,1.08-7.05-5.59-1.51-11.71-4.53-23.06-8.62-34.13-2.73-7.39-2.5-8.01,3.91-12.14,30.72-19.81,64.51-31.1,100.48-36.45,8.2-1.22,16.45-2.22,24.55-3.91,7.55-1.58,15.18-.92,22.76-1.77,21.19-2.4,42.55-1.97,63.78-1,15.44.71,30.91,1.98,46.34,3.61,12.28,1.29,24.51,2.33,36.08,6.91,44.63,17.66,74.05,48.96,85.56,96.09,3.23,13.23,5.58,26.62,4.9,40.35-3.73.23-4.02,3.91-5.75,6.01-28.24,34.24-61.95,61.64-101.62,81.58-30.43,15.3-62.68,25.08-96.15,31.15-12.49,2.26-25.09,3.85-37.68,4.87-11.91.96-23.96.13-35.95.23-18.89.16-37.67-1.18-56.31-4.13-9.87-1.56-19.55-4.32-29.44-5.69-11.59-1.61-20.26-6.45-24.19-18-.68-2.01-1.21-4.09-2.01-6.05-8.4-20.61-13.15-41.99-13.81-64.26Z"/><path class="cls-2" d="m866.81,866.94c.66,22.27,5.41,43.65,13.81,64.26.8,1.96,1.32,4.04,2.01,6.05,3.93,11.56,12.6,16.39,24.19,18,9.89,1.38,19.57,4.13,29.44,5.69,18.64,2.95,37.42,4.29,56.31,4.13,11.99-.1,24.04.73,35.95-.23,12.59-1.02,25.19-2.6,37.68-4.87,33.46-6.07,65.71-15.85,96.15-31.15,39.66-19.94,73.38-47.34,101.62-81.58,1.73-2.09,2.02-5.78,5.75-6.01.39,4.42,1,8.83,1.13,13.26.46,14.92-2.82,29.29-7.19,43.4-.91,2.93-.08,4.57,1.19,6.74,3.96,6.73,8.94,12.78,10.4,20.99,1.24,6.97-1.11,13.29-1.68,19.89-.19,2.21-.65,4.53-.67,6.79-.24,22.15-.52,44.3-.51,66.45,0,5.37-1.27,9.62-5.62,13.05-5.59,4.41-9.44,10.69-15.63,14.54-7.29,4.53-14.54,6.58-22.65,1.94-5.56-3.19-11.02-2.97-16.51.91-1.91,1.35-4.98,2.34-7.48.66-2.61-1.76-1.63-4.19-.81-6.63.46-1.35.82-3.46.11-4.36-3.5-4.5.06-6.5,2.97-7.99,11.89-6.09,13.8-16.33,13.31-28.38-.35-8.7-1.31-17.16-3.54-25.5-1.89-.09-2.95,1.41-3.17,2.29-1.82,7.11-5.94,13.03-9.44,19.28-1.64,2.93-1.1,6.14-.97,9.21.13,3.01-.85,4.93-3.4,6.58-3.48,2.24-6.66,4.94-10.04,7.49-1.29-1.98,1.45-2.84.98-4.48-1.58-1.04-3.13.19-4.09.85-4.18,2.92-8.49,2.37-12.66.68-2.64-1.07-4.26-1-6.57.96-15.6,13.23-34.2,13.9-53.25,12.02-1.64-.16-3.15-1.69-4.7-2.62-3.59-2.13-7.23-3.97-11.63-3.25-3.19.53-5.39-.81-6.99-3.58-1.55-2.66.95-3.89,1.85-5.57,4.54-8.4,13-10.81,21.16-13.86,8.19-3.05,15.32-7.91,21.01-14.64,2.3-2.71,3.51-5.91,3.33-9.59-.08-1.59-.54-3.37,1.13-4.6,1.02-.75,2.55-1.29,1.51-3.05-.85-1.44-2.29-1.06-3.58-1.11-4.39-.19-8.36,1.33-12.39,2.86-13.25,5.04-27.51,5.78-41.07,9.34-16.71,4.39-33.87,3.76-50.71,6.04-33.12,4.48-66.29,2.52-99.44,2.54-11.52,0-23.25-.67-34.6-3.64-3.82-1-7.7.15-11.21,1.15-10.25,2.93-20.6,4.09-31.18,3.69-3.54-.13-5.52.72-7.61,4.31-5.62,9.7-11.92,18.98-16.57,29.27-.89,1.96-1.89,4.19-1.89,5.91-.01,6.82-3.66,11.09-8.79,14.55-9.03,6.1-18.88,10.03-29.93,9.87-4.84-.07-9.91-.62-14.1-3.19-5.92-3.62-12.15-4.69-18.9-4.27-3.82.23-7.67.24-11.49.07-2.57-.11-5.03-1.06-6.06-3.68-1.06-2.7,1.46-3.71,2.93-5.16,5.88-5.78,13.55-8.69,20.48-12.78,3.29-1.94,6.68-3.72,9.94-5.71,11.79-7.18,13.31-12.15,8.63-25.82-2.53-7.41-2.99-7.54-10.75-7.35-5.63.14-11.11-.6-16.44-2.3-2.94-.94-5.84-.82-8.82-.56.4,3.64,1.72,6.81,2.04,10.29.82,8.8-3.57,14.39-10.79,17.88-5.23,2.54-8.66,6.38-11.5,11.17-5.37,9.04-9.07,10.41-18.71,6.64-3.52-1.38-6.7-1.04-10,.22-3.11,1.19-6.29,1.9-9.65,1.63-4.44-.35-6.4-3.61-4.24-7.36,3.41-5.92,7.04-11.53,12.92-15.59,6.15-4.25,6.44-11.12,1.85-20.43-4.11-8.33-9.2-16.06-14.47-23.66-4.75-6.85-6.51-14.63-7.3-22.68-.37-3.77-1.49-7.41-1.28-11.3.21-3.73,1.63-6.4,5.12-7.48,4.89-1.52,8.89-4.39,12.68-7.63,3.05-2.61,5.67-2.64,8.63.29,16.81,16.67,36.42,29.68,56.04,42.67,4.24,2.81,7.83-.31,11.22-2.07,5.99-3.11,11.17-7.44,15.67-12.51.68-.77,1.41-1.39,2.52-1.32,5.91,3.01,11.83,6.01,17.74,9.03,16.44,8.39,16.61,8.65,31.92-1.5,21.98-14.58,27.41-32.33,23.79-56.01-1.13-7.38-5.08-13.82-5.7-21.22,3.55-2.75,7.26-5.25,11.26-7.31Z"/><path class="cls-3" d="m714.39,637.1c16.77-1.01,33.33.84,49.78,3.93,3.7.7,4.71-1.83,5.66-4.28,6.36-16.32,14.46-31.77,23.27-46.87,12.75-21.86,26.55-43.05,40.72-64,4.34-6.42,10.25-11.78,15.53-17.54,2.51-2.74,4.69-1.44,6.68.88,6.6,7.69,11.15,16.59,14.66,25.95,6.67,17.76,10.96,36.05,13.54,54.96,2.72,19.91,3.9,39.82,4.94,59.82.38,7.29.58,14.57.74,21.86.21,9.71-2.41,18.62-7.61,26.84-5.25,8.3-9.84,16.96-13.7,26.02-2.78,6.53-2.93,13.07-2.08,20.01,2.18,17.82,6.79,35.43,6.26,53.46-.24,8.18-1.12,16.91-6.99,23.78-5.48.32-9.92,3.19-14.5,5.78-9.91,5.61-20.81,7.74-31.95,7.17-8.34-.43-16.55-2.81-24.88-3.84-18.28-2.27-35.7-7.15-51.17-17.33-28.07-18.45-40.56-45.66-42.17-78.33-.75-15.21-1.2-30.5.91-45.71,1.42-10.25,3.49-20.37,5.95-30.4,1.83-7.47,4.25-14.79,6.41-22.17Zm50.64,81c-13.92-1.97-25.78,12.34-25.27,24.76.6,14.63,11.33,25.13,26.89,25.16,13.46.03,23.38-11.8,23.37-27.84,0-12.48-10.91-22.12-24.99-22.09Zm69.31-172.46c-5.96,2.49-9.66,5.93-12.89,10-5.92,7.47-10.37,15.83-14.97,24.13-9.04,16.29-17.59,32.74-23.55,50.52-3.03,9.03-1.53,16.17,5.07,22.53,5.32,5.13,13.08,4.31,17.31-1.76,3.06-4.38,4.26-9.31,4-14.64-.95-19.56,2.92-38.32,9.43-56.65,4.07-11.44,10.59-21.75,15.6-34.13Zm-40.23,145.21c.07-10.12-3.54-13.62-13.75-13.89-8.08-.21-16.23.91-24.24-.93-6.72-1.55-9.82,3.6-13.64,7.31-1.08,1.05-1.06,3.26-.19,4.22,4.24,4.65,8.48,9.73,15.54,9.58,4.6-.1,9.3.17,13.08,2.37,6.5,3.78,12.8-1.21,19.09.54.39.11,1.03-.72,1.58-1.08,3.06-2.01,2.31-5.21,2.53-8.11Z"/><path class="cls-2" d="m714.39,637.1c-2.16,7.39-4.58,14.71-6.41,22.17-2.46,10.03-4.53,20.15-5.95,30.4-2.11,15.21-1.65,30.49-.91,45.71,1.61,32.67,14.1,59.87,42.17,78.33,15.47,10.17,32.89,15.06,51.17,17.33,8.33,1.03,16.54,3.41,24.88,3.84,11.14.58,22.03-1.56,31.95-7.17,4.58-2.59,9.03-5.46,14.5-5.78,1.26,13.76-15.75,35.58-30.39,36.51-15.07.96-29.94,4.94-44.94,7.4-4.53.74-9.17.79-13.75,1.17-16.18,1.34-32.33,3.21-48.53,3.9-15.96.67-31.98.25-47.97.09-4.59-.04-8.21-6.36-6.69-11.04,2.49-7.67,7.58-13.8,14.83-16.33,9.99-3.48,12.42-11.89,14.41-19.92,3.05-12.33-1.53-18.28-15.48-22.36-12.47-3.65-25.15-4.88-37.96-1.38-7.25,1.98-11.83,7.2-14.89,13.41-1.7,3.46,1.61,7.19,3.02,10.52,2.97,7.01,7.47,13.23,12.19,19.2,1.39,1.76,3.34,2.85,5.93,3.1,7.43.73,9.38,3.11,9.41,10.42,0,1.83.02,3.67.02,5.5-.01,5.84-.93,6.76-6.63,5.89-22.82-3.47-44.98-9.43-65.88-19.29-6.53-3.08-12.77-7.12-18.27-12.01-7.45-6.62-9.43-14.63-7.44-24.45,1.63-8.08,3.31-15.99,7.21-23.3,13.48,5.59,26.18,3.37,38.27-4.01,10.36-6.32,18.56-14.98,25.89-24.53,9.6-.81,17.53-4.15,21.06-14.03,1.78-4.98.32-10.16.79-15.22,8.25-11.63,11.08-25.07,13.03-38.82,2.78-3.55,2.84-7.43,1.34-11.48.11-1.8.22-3.6.33-5.4.76-12.21-3.25-24.04-2.9-36.22,11.54-1.25,23.09-2.41,34.72-2.49,2.63-.02,5.27-.45,7.86.34Z"/><path class="cls-3" d="m673.04,692.35c-1.94,13.74-4.78,27.19-13.03,38.82-2.04-2.6-3.98-5.28-6.14-7.78-5.48-6.33-15.97-7.54-23.69-3.89-7.82,3.7-12.92,12.6-12.08,21.15,1.02,10.41,7.59,16.89,20.05,19.77-7.33,9.55-15.53,18.21-25.89,24.53-12.09,7.38-24.79,9.59-38.27,4.01-1.25-2.09.05-3.79.8-5.61,9.69-23.59,21.85-45.92,35.06-67.68,4.09-6.74,4.33-12.66-.59-19.23-10.31-13.75-16.52-29.58-20.83-46.01-1.47-5.59-1.19-12.09-.02-17.84,5.41-26.63,11.52-53.11,18.73-79.32,1.81-6.57,3.82-13.06,6.45-19.37,1.57-3.77,3.16-3.67,5.49-.62,20.37,26.63,36.65,55.42,46.68,87.56,1.92,6.16,4.04,12.27,6.06,18.4-.35,12.18,3.67,24.01,2.9,36.22-.11,1.8-.22,3.6-.34,5.4-2.51-1.5-4.47-3.78-7.9-3.73-9.8.14-19.61-.14-29.42-.11-9.19.03-15.7,10.34-12.03,18.84,1.24,2.88,3.23,3.95,6.46,4.43,5.52.81,10.69-.59,16.03-1.03,9-.75,17.66-2.23,25.52-6.91Zm-51.09-135.21c.95,2.89,1.61,5.44,2.61,7.84,6.67,16.17,11.38,32.88,13.8,50.22.3,2.13.88,4.33.64,6.42-.84,7.54,1.83,14.39,3.87,21.36.79,2.71,2.28,5.04,5.45,4.97,3.41-.08,6.58-1.66,7.22-5.08.83-4.47,2.16-8.99.92-13.71-6.45-24.64-16.88-47.55-29.83-69.38-.86-1.45-1.96-2.72-4.68-2.63Z"/><path class="cls-4" d="m751.47,889.06c9.83,0,19.74.83,29.45-.21,11.67-1.26,23.59.38,35.06-2.98.89-.26,2.02-.92,2.71.17.68,1.07-.33,1.84-.96,2.56-16.36,18.85-32.74,37.69-49.09,56.55-1.8,2.08-3.55,2.6-6.04.97-17.14-11.22-33.81-23.08-49.26-36.55-2.41-2.1-6.9-3.91-4.94-8.22,2.53-5.57,4.49-12.31,12.59-12.35,10.16-.06,20.32-.01,30.48-.01,0,.03,0,.05,0,.08Z"/><path class="cls-3" d="m855.56,874.25c.61,7.4,4.57,13.84,5.7,21.22,3.62,23.68-1.82,41.43-23.79,56.01-15.31,10.16-15.48,9.89-31.92,1.5-5.91-3.02-11.82-6.02-17.74-9.03,13.62-15.45,26.89-31.19,39.02-47.85.59-.8,1.39-1.49,1.82-2.37,5.49-11.33,15.94-15.77,26.92-19.5Z"/><path class="cls-4" d="m658.21,885.9c3.28.26,6.4,1.53,9.79,1.26,2.1-.17,2.14,1.62,2.18,3.16.08,3.32.19,6.64.2,9.97,0,2.51,1.05,4.55,2.87,6.11,1.27,1.09,2.97,1.83,4.62,1.36,2.05-.58.94-2.52,1.11-3.86.49-4.09.82-8.2,1.31-12.29.23-1.88.7-3.79,3.32-3.24,4.95,1.03,9.94.49,14.91.48,3.3,0,4.24,1.04,2.64,4.16-5.3,10.31-13.25,17.75-23.84,22.37-3.92,1.71-7.45.84-10.61-1.93-7.39-6.47-10.53-15.14-12.51-24.36-.73-3.41,1.7-3.33,4.01-3.2Z"/><path class="cls-6" d="m765.03,718.1c14.07-.03,24.98,9.61,24.99,22.09,0,16.04-9.92,27.86-23.37,27.84-15.56-.03-26.29-10.53-26.89-25.16-.51-12.43,11.35-26.73,25.27-24.76Z"/><path class="cls-6" d="m834.34,545.65c-5.01,12.38-11.54,22.69-15.6,34.13-6.51,18.33-10.38,37.09-9.43,56.65.26,5.33-.94,10.26-4,14.64-4.24,6.07-11.99,6.89-17.31,1.76-6.61-6.36-8.1-13.51-5.07-22.53,5.97-17.77,14.51-34.23,23.55-50.52,4.6-8.29,9.05-16.66,14.97-24.13,3.23-4.07,6.93-7.52,12.89-10Z"/><path class="cls-6" d="m794.11,690.86c-.21,2.9.54,6.09-2.52,8.11-.55.36-1.18,1.19-1.58,1.08-6.29-1.75-12.59,3.23-19.09-.54-3.78-2.2-8.48-2.46-13.08-2.37-7.07.15-11.3-4.93-15.54-9.58-.87-.95-.89-3.16.19-4.22,3.81-3.71,6.92-8.85,13.64-7.31,8.01,1.84,16.16.72,24.24.93,10.21.27,13.82,3.77,13.75,13.89Z"/><path class="cls-6" d="m638.15,760.42c-12.46-2.88-19.03-9.36-20.05-19.77-.84-8.54,4.25-17.44,12.08-21.15,7.72-3.65,18.21-2.44,23.69,3.89,2.16,2.5,4.1,5.18,6.14,7.78-.47,5.06.99,10.25-.79,15.22-3.53,9.87-11.47,13.22-21.06,14.03Z"/><path class="cls-6" d="m673.04,692.35c-7.87,4.69-16.52,6.17-25.52,6.91-5.34.44-10.5,1.84-16.03,1.03-3.23-.47-5.22-1.55-6.46-4.43-3.67-8.51,2.84-18.82,12.03-18.84,9.81-.03,19.62.25,29.42.11,3.44-.05,5.39,2.23,7.9,3.73,1.5,4.06,1.44,7.93-1.34,11.49Z"/><path class="cls-6" d="m621.95,557.15c2.72-.09,3.82,1.18,4.68,2.63,12.95,21.83,23.38,44.75,29.83,69.38,1.24,4.73-.09,9.24-.92,13.71-.63,3.42-3.8,5-7.22,5.08-3.17.07-4.66-2.26-5.45-4.97-2.04-6.97-4.72-13.82-3.87-21.36.23-2.09-.34-4.28-.64-6.42-2.43-17.33-7.13-34.04-13.8-50.22-.99-2.41-1.66-4.95-2.61-7.84Z"/></g></g></svg>