<?xml version="1.0" encoding="UTF-8"?><svg id="Layer_652" xmlns="http://www.w3.org/2000/svg" width="1630.85" height="1377.25" viewBox="0 0 1630.85 1377.25"><defs><style>.cls-1{fill:#0190ff;}.cls-2{fill:#d3686d;}.cls-3{fill:#fc7e01;}.cls-4{fill:#fd7e01;}.cls-5{fill:#441d11;}.cls-6{fill:#fefefe;}</style></defs><rect class="cls-1" x="437.61" y="239.16" width="1080" height="1080"/><g><path class="cls-5" d="m1349.56,604.49c-2.09,23.79-5.92,47.25-13.44,69.99-6.52,19.71-14.66,38.7-23.57,57.47-5.63,11.84-12.83,22.57-19.38,33.76-4.72,8.06-9.72,15.99-12.72,24.93-.96,2.86-2.82,5.18-4.34,7.72-7,11.67-4.57,23.33-.29,35.23,5.57,15.47,10.79,31.05,13.53,47.39,1.38,8.24,3.32,16.37,3.91,24.75.4,5.69,3.32,7.5,10.03,5.2,11.67-4,23.21-2,34.93-.92,12.04,1.11,23.76,4.29,35.84,5.07,6.58.43,10.08,8.01,7.68,15.97-2.76,9.17-9.97,14.65-21.44,15.02-17.29.57-34.61.63-51.91.95-10.58.19-11.99,1.62-12.16,11.98-.02,1.33-.17,2.65-.26,3.98-2.58,2.33-1.92,5.35-1.74,8.26-2.97,7.52-.17,11.95,7.64,11.87,17.97-.18,35.74,1.48,53.14,6.04,6.35,1.66,8.11,4.22,8.13,10.61.05,13.48-6.35,20.05-19.44,20.34-19.48.44-38.96.78-58.44,1-4.33.05-6.99,1.73-8.91,5.63-4.66,9.44-11.58,17.23-18.74,24.85-16.24,17.28-36.47,28-58.44,35.91-7.45,2.69-13.28,7.35-17.7,13.87-16.08,23.7-33.62,46.33-51.73,68.49-11.96,14.63-24.13,29.14-37.52,42.48-9.36,9.32-19.3,18.12-30.15,25.78-5.57,3.93-11.74,6.66-18.21,8.67-8.27,2.57-13.74-3.34-19.57-7.23-22.97-15.35-45.91-30.74-67.48-48.06-12.52-10.06-24.85-20.32-36.12-31.79-3.87-3.94-9.36-3.96-14.06.71-5.71,5.68-12.34,10-19.42,13.49-5.14,2.54-11.18,2.16-16.8,3.08-10.79,1.76-20.56-2.48-30.23-6.51-1.24-.52-2.24-1.92-3.06-3.1-10.84-15.51-20.54-31.66-28.03-49.09-2.12-4.92-4.76-9.65-5.98-14.89-1.53-6.56-5.92-9.61-12.15-10.24-20.1-2.03-39.53-7.29-58.67-13.26-13.15-4.11-25.81-9.81-38.33-15.72-15.45-7.29-29.91-16.01-42.92-27.09-15.52-13.22-27.01-29.4-34.27-48.35-2.28-5.95-4-12.38-3.55-19.14.4-6.04-1.21-7.46-7.06-7.43-9.07.05-16.4-4.44-23.35-9.36-2.26-1.6-3.76-4.45-.91-8.07,4.62-5.86,10.51-9.87,17.1-12.39,8.76-3.35,11.32-10.55,13.25-18.28,3.41-13.66-4.2-20.33-14.94-25.94-7.08-3.7-13.93-7.55-19.08-13.83-1.24-1.51-2.51-3.03-3.54-4.69-3.4-5.51-2.29-9.32,3.91-11.08,8.36-2.38,16.99-1.67,25.53-.89,10.2.93,20.01,3.97,30.09,5.58,5.26.84,8.35-1.88,10.81-5.99,6.3-10.52,12.39-21.18,19.06-31.46,12.26-18.89,24.93-37.5,40.95-53.52,1.26-1.26,2.76-2.29,4.18-3.39,6.98-5.41,7.28-9.12.94-15.27-8.39-8.13-16.14-16.8-23.37-25.97-12.63-16.05-20.74-34.06-24.79-54.12-2.43-12.06-2.27-24.1-2.52-36.27-.27-13.34,2.38-26.2,3.98-39.23,1.25-10.14,3.85-20.11,5.46-30.22,1.42-8.88,2.29-17.84,3.41-26.77,1.59-12.61,3.71-25.14,5.72-37.69,1.44-9.04,3.25-17.97,5.29-26.85,2.66-11.59,5.86-23.05,8.54-34.63,2.48-10.72,5.51-21.29,9.53-31.49,6.68-16.97,12.8-34.23,23.67-49.23,3.32-4.58,7.55-6.63,13.01-6.79,28.14-.82,50.87,10.39,69.45,31.03,10.14,11.27,18.85,23.57,25.62,37.08,8.06,16.1,14.9,32.7,20.46,49.93,3.86,11.97,7.8,23.89,11.06,36.04,4.89,18.24,7.59,36.95,11.47,55.4,1.94,9.24,2.73,18.72,4.08,28.08.17,1.17-.8,2.86,1.12,3.33,1.75.43,3.04-.34,4.3-1.73,9.17-10.08,20.14-17.74,32.61-23.14,11.35-4.91,23.13-7.98,35.67-8.19,18.79-.31,37.22,1.73,55.2,7.17,6.45,1.95,12.8,4.37,18.74,7.69,1.45.81,2.94,1.56,4.47,2.23,9.89,4.36,10.8,1.64,12.77-6.33,3.18-12.85,6.97-25.52,11.39-37.92,5.02-14.08,11.31-27.71,17.25-41.45,15.58-36.04,36.69-68.71,61.64-98.88,25.15-30.4,55.39-54.54,91.2-71.36,9.42-4.42,19.17-8.26,29.02-11.61,3.98-1.35,8.29-1.38,11.49,3.74,8.78,14.02,17.7,27.92,25.55,42.5,8.17,15.19,15.65,30.7,22.23,46.64,6.72,16.27,12.44,32.87,17.54,49.74,4.28,14.16,8.08,28.39,11.07,42.85,2.08,10.06,4.31,20.11,4.8,30.46.18,3.89,1.31,7.76,1.29,11.73-.63,2.05-1.4,4.12.49,5.96,1.57,8.72,2.49,17.5,2.11,26.37-.25,5.87-.64,11.73-.97,17.59-3.63,4.75-2.23,10.04-1.62,15.24Zm-487.04,10.58c-1.76-5.54-3.64-11.05-5.27-16.63-10.5-35.96-23.63-70.88-41.24-104.01-11.26-21.17-23.74-41.61-37.52-61.24-6.79-9.67-13.89-19.13-21.13-28.46-3.96-5.1-6.09-4.63-8.53,1.4-1.93,4.77-3.68,9.62-5.43,14.46-7.41,20.48-12.07,41.72-17.35,62.8-4.14,16.51-9.2,32.83-12.52,49.5-3.39,17.02-7.1,33.96-10.62,50.94-2.38,11.46-5.03,22.96-5.49,34.66-.46,11.6,2.93,22.71,6.27,33.77,8.68,28.73,21.2,55.54,39.09,79.72,6.44,8.71,7.15,17.61,1.65,26.98-4.47,7.6-8.96,15.19-13.39,22.81-22.5,38.7-42.87,78.48-60.51,119.63-1.13,2.63-1.64,5.03-.12,7.59-4.98,9.71-8.35,19.91-10.69,30.62-2.42,11.06-4.98,22.01-4.46,33.41.42,9.21,3.7,17.48,9.88,24.13,15.51,16.69,35.45,26.81,55.89,35.83,11.66,5.15,23.61,9.75,36.02,13.06,10.04,2.68,19.82,6.36,29.89,8.95,16.97,4.37,34.31,7.04,51.56,10.06,9.23,1.62,12.64-1.22,12.91-10.67.13-4.49.12-9.01-.21-13.48-.85-11.44-7.67-18.77-17.74-18.66-6.18.07-10.84-2.37-14.44-7-12.31-15.8-23.22-32.39-29.13-51.83-1.12-3.68-.61-6.78,1.5-9.68,2.55-3.49,5.27-6.85,8.04-10.16,6.76-8.08,15.68-12.37,25.85-14.3,12.57-2.39,25.09-2.64,37.92-1.39,14.89,1.45,29.07,4.96,42.69,10.74,9.37,3.97,17.7,9.97,19.23,20.94,1.23,8.81.27,17.78-3.04,26.24-3.13,8.01-7.87,15.2-11.94,22.72-1.44,2.65-3.9,4.88-6.76,5.46-4.64.94-8.64,3.14-12.59,5.37-12.42,7-20.8,17.28-24.13,31.34-2.13,8.97,3.83,18.91,11.79,19.37,5.6.32,11.24.77,16.8.86,22.64.39,45.29.09,67.93.05,4.2,2.19,8.19,1.34,12.07-.88,2.63-.3,5.27-.61,7.9-.91,2.7,2.05,5.22,2.78,7.15-.95,9.07-.63,18.17-.42,27.26-.85,14.51-.68,28.9-2.53,43.38-3.47,13.55-.88,26.98-3.43,40.51-4.73,14.52-1.39,28.68-4.97,43.15-6.6,11.37-1.28,22.31-4.91,33.82-5.65,6.75-.43,13.7-1.25,20.05-3.95,13.53-5.76,23.62-15.78,32.03-27.45,8.82-12.25,14.45-25.83,14.69-41.24,4.4-7.48,9.64-14.59,10.21-23.72.87-1.26.56-2.58.21-3.91.1-.79.19-1.57.29-2.36,1.61-.57,3.34-1.09,1.38-3.19,3.47-15.01,2.58-30.19-.36-44.96-1.61-8.1-2.75-16.22-3.55-24.33-1.54-15.47-4.28-30.71-6.77-46.02-2.11-12.96-3.09-25.97,2.07-38.78,7.42-18.42,16.38-36.05,27.14-52.66,12.07-18.62,17.99-38.83,17.29-60.85-.56-17.54-2.39-35.05-2.81-52.59-.41-17.23-2.02-34.36-2.93-51.53-1.01-19.03-4.38-37.73-6.51-56.59-1.84-16.28-5.7-32.25-9.53-48.19-7.45-30.98-17.35-61.01-33.7-88.59-3.83-6.46-8.14-12.61-13.36-18.02-4.96-5.14-8.27-4.91-12.85.38-2.29,2.64-4.41,5.45-6.89,7.9-13.33,13.13-25.39,27.21-34.99,43.41-7.63,12.88-16.02,25.3-24.14,37.88-16.78,26-33.43,52.07-48.77,78.97-14.75,25.87-28.38,52.28-39.47,79.95-4.89,12.2-4.84,12.28-17.49,10.7-13.11-1.63-26.28-2.93-39.29-5.17-18.01-3.1-36.01-3.54-54.12-1.65-16.92-1.54-33.78.82-50.68,1.08-11.01.17-22.14,1.33-33.03,3.6Zm150.6,491.06c0-.1,0-.21,0-.31-16.32,0-32.64-.09-48.96.03-14.28.1-20.79,4.7-25.57,17.69-.29.78-.45,1.62-.83,2.34q-5.07,9.68,2.69,17.07c1.21,1.15,2.43,2.28,3.69,3.37,30.43,26.27,62.99,49.65,96.62,71.6,6.66,4.34,7.87,4.26,13-1.61,23.97-27.46,47.91-54.95,71.83-82.45,8.52-9.8,16.97-19.65,25.37-29.55.93-1.1,3-2.12,1.57-4.17-1.17-1.68-2.69-.59-4.09-.34-2.79.48-5.57.97-8.36,1.4-25.84,4.05-52.02,2.8-78,4.72-16.23,1.2-32.62.22-48.94.22Zm-152.8,13.84c0-4.7-.06-8.53.02-12.36.08-4-1.75-5.6-5.77-5.66-5.26-.08-10.6-.21-15.76-1.16-10.69-1.97-11.88-.95-9.44,9.69.33,1.46.67,2.92,1.07,4.36,4.05,14.83,10.27,28.39,21.98,38.95,7.39,6.66,13.95,7.93,22.8,3.77,1.96-.92,3.9-1.88,5.8-2.91,17.46-9.52,30.71-23.19,39.89-40.79,3.07-5.88,2-8.01-4.55-8.1-10.48-.15-20.96.49-31.41-.83-4.07-.51-5.43,2.61-5.4,5.67.08,9.82-1.37,19.48-2.29,29.2-.33,3.48-2.76,5.34-5.93,3.84-4.11-1.94-7.62-4.55-9.76-8.87-2.55-5.14-.66-10.47-1.25-14.81Z"/><path class="cls-2" d="m1349.56,604.49c-.61-5.2-2.02-10.49,1.62-15.24,3,6.74,2.54,11.04-1.62,15.24Z"/><path class="cls-2" d="m1294.2,971.25c-.18-2.91-.84-5.93,1.74-8.26,1.63,3.22,2.89,6.36-1.74,8.26Z"/><path class="cls-2" d="m1350.03,545.28c-1.89-1.84-1.12-3.91-.49-5.96,3.07,1.75,5.38,3.56.49,5.96Z"/><path class="cls-4" d="m946.23,610.38c18.12-1.88,36.11-1.45,54.12,1.65,13.01,2.24,26.18,3.54,39.29,5.17,12.65,1.58,12.6,1.5,17.49-10.7,11.09-27.67,24.72-54.08,39.47-79.95,15.34-26.89,31.98-52.97,48.77-78.97,8.12-12.58,16.52-25,24.14-37.88,9.6-16.2,21.66-30.28,34.99-43.41,2.48-2.45,4.61-5.26,6.89-7.9,4.58-5.3,7.9-5.53,12.85-.38,5.22,5.41,9.53,11.57,13.36,18.02,16.35,27.58,26.25,57.6,33.7,88.59,3.83,15.94,7.69,31.91,9.53,48.19,2.13,18.86,5.5,37.56,6.51,56.59.91,17.18,2.52,34.3,2.93,51.53.42,17.54,2.25,35.05,2.81,52.59.7,22.02-5.22,42.22-17.29,60.85-10.77,16.61-19.72,34.24-27.14,52.66-5.16,12.81-4.18,25.82-2.07,38.78,2.49,15.31,5.23,30.55,6.77,46.02.81,8.11,1.94,16.23,3.55,24.33,2.93,14.77,3.83,29.95.36,44.96-1.15.76-2.6,1.41-1.38,3.19-.1.79-.19,1.57-.29,2.35-.07,1.3-.14,2.61-.21,3.91-.57,9.13-5.81,16.24-10.21,23.72-8.74,1.46-17.1,3.86-24.65,8.76-22.64,14.68-48.12,17.48-74.03,15.75-16.31-1.09-32.42-5.13-48.64-7.65-25.79-4.01-50.68-10.51-74.45-21.87-44.68-21.35-73.54-56.45-90.93-101.77-7.7-20.06-11.43-41.21-12.07-62.63-.79-26.06-1.59-52.16.8-78.22,1.32-14.39,3.01-28.7,6.41-42.77,1.04-4.3,1.7-8.69,2.72-13,2.66-11.15,5.18-22.32,8.76-33.25,2.93-8.91,7.06-17.58,7.14-27.26Zm235.96-179.12c-10.82,3.21-17.89,11.23-24.61,19.53-12.75,15.74-21.85,33.73-31.68,51.31-16.57,29.64-32.7,59.44-42.84,92.06-2.3,7.41-5.72,14.75-4.71,22.63,1.21,9.43,5.74,17.4,12.43,24.4,11.57,12.12,29.18,6.97,35.64-3.67,5.35-8.81,7.71-18.1,7.16-28.46-.53-9.94-1.15-19.96.62-29.89,0-.26.02-.51.04-.77-.63-9.67,1.51-19.14,3.36-28.41,3.43-17.2,7.99-34.21,14.1-50.72,8.05-21.72,19.28-41.98,28.84-63.01.73-1.6,2.24-3.01,1.59-5.06.09-.08.19-.16.28-.23-.07.1-.15.2-.22.3Zm-85.86,387.23c.02-29.99-21.6-49.79-55.13-49.18-23.37.43-44.72,22.66-44.79,48.8-.07,26.35,21.31,50.07,50.09,50.14,29.3.07,51.05-25.34,49.83-49.76Zm-73.37-131.43c-2.95-.24-5.61.32-7.98,2.22-4.31,3.46-8.05,7.5-11.58,11.7-2.84,3.38-3.39,7.36-.05,10.8,6.25,6.45,12.48,12.91,21.19,16.3,4.57,1.78,9.03.62,13.56.73,7.23.17,13.97,2.73,20.81,4.73,7.06,2.06,14.16,3.79,21.53,1.61,4.28-1.26,8.49-4.15,12.84-.09.35.33,1.31.17,1.94.03,4.2-.93,10.49-10.65,9.63-14.93-.65-3.23-1.71-6.34-1.7-9.74.04-11.84-7.73-20.48-19.56-21.01-20.21-.9-40.52.88-60.63-2.35Z"/><path class="cls-6" d="m946.23,610.38c-.08,9.68-4.21,18.34-7.14,27.26-3.59,10.93-6.11,22.1-8.76,33.25-1.03,4.3-1.68,8.7-2.72,13-3.4,14.07-5.09,28.38-6.41,42.77-2.39,26.06-1.59,52.16-.8,78.22.65,21.42,4.38,42.57,12.07,62.63,17.39,45.33,46.25,80.42,90.93,101.77,23.77,11.36,48.66,17.86,74.45,21.87,16.23,2.52,32.33,6.56,48.64,7.65,25.91,1.73,51.39-1.07,74.03-15.75,7.55-4.89,15.92-7.3,24.65-8.76-.24,15.4-5.87,28.98-14.69,41.24-8.41,11.68-18.51,21.69-32.03,27.45-6.35,2.7-13.3,3.52-20.05,3.95-11.51.73-22.45,4.37-33.82,5.65-14.47,1.63-28.63,5.21-43.15,6.6-13.53,1.29-26.96,3.85-40.51,4.73-14.48.94-28.86,2.79-43.38,3.47-9.09.42-18.19.22-27.26.85-2.4.19-4.99-1.07-7.15.95-2.63.3-5.27.61-7.9.91-5.3-3.51-7.41-3.36-12.07.88-22.64.04-45.29.35-67.93-.05-5.56-.1-11.2-.54-16.8-.86-7.96-.46-13.92-10.4-11.79-19.37,3.33-14.06,11.7-24.34,24.13-31.34,3.95-2.22,7.95-4.42,12.59-5.37,2.86-.58,5.32-2.81,6.76-5.46,4.07-7.52,8.81-14.71,11.94-22.72,3.31-8.46,4.27-17.43,3.04-26.24-1.53-10.97-9.85-16.97-19.23-20.94-13.61-5.77-27.8-9.29-42.69-10.74-12.83-1.25-25.36-1-37.92,1.39-10.17,1.93-19.08,6.23-25.85,14.3-2.77,3.31-5.49,6.68-8.04,10.16-2.11,2.89-2.62,6-1.5,9.68,5.91,19.44,16.82,36.03,29.13,51.83,3.61,4.63,8.26,7.06,14.44,7,10.07-.11,16.89,7.22,17.74,18.66.33,4.48.34,8.99.21,13.48-.27,9.45-3.68,12.29-12.91,10.67-17.25-3.02-34.59-5.69-51.56-10.06-10.06-2.59-19.84-6.27-29.89-8.95-12.41-3.31-24.35-7.91-36.02-13.06-20.43-9.02-40.38-19.14-55.89-35.83-6.18-6.65-9.46-14.92-9.88-24.13-.52-11.41,2.04-22.35,4.46-33.41,2.34-10.71,5.7-20.91,10.69-30.62,2.02,1.62,4.63,1.56,6.93,2.34,9.78,3.29,19.53,5.53,30.19,3.96,14.71-2.17,27.93-7.53,40.45-15.22,19.74-12.13,34.54-29.43,49.36-46.73,4.35.27,8.47-1.06,12.5-2.25,13.74-4.06,24.18-11.51,28.68-26.26,2.89-9.46,3.4-18.61,1.53-28.11,5.69-8.89,9.89-18.43,13.73-28.28,6.24-16.01,10.38-32.4,12.28-49.42,4.95-6.86,5.87-14.15,2.36-21.92.68-19.99-.35-39.82-3.82-59.6-1.28-7.3-3.58-14.77-2.07-22.44,10.89-2.27,22.02-3.43,33.03-3.6,16.89-.27,33.75-2.62,50.68-1.08Z"/><path class="cls-3" d="m862.52,615.07c-1.52,7.67.79,15.14,2.07,22.44,3.47,19.78,4.5,39.61,3.82,59.6-2.41-.92-4.02-2.9-5.94-4.48-2.14-1.76-4.49-2.7-7.3-2.73-20.3-.21-40.61-.78-60.91-.59-11.79.11-18.21,3.89-22.77,16.27-.29.78-.6,1.55-.79,2.36-2.27,9.23-2.98,18.18,5.02,25.37,1.18,1.07,2.26,2.36,4.32,1.62,4.41-1.59,8.82-.83,13.13.51,4.35,1.35,8.48,1.24,12.54-1,2.97-1.64,6.21-2.22,9.62-2.18,18.09.19,35.14-3.71,50.71-13.23-1.9,17.02-6.04,33.41-12.28,49.42-3.84,9.86-8.04,19.39-13.73,28.28-1.54-2.36-3.02-4.76-4.62-7.08-12.73-18.45-26.25-23.28-44.83-20.2-16.9,2.8-30.47,17.73-33.08,36.24-2.19,15.55,4.85,32.89,21.01,41.28,5.98,3.11,12.31,4.96,18.82,6.37-14.82,17.3-29.62,34.6-49.36,46.73-12.52,7.69-25.74,13.05-40.45,15.22-10.66,1.58-20.41-.66-30.19-3.96-2.31-.78-4.91-.72-6.93-2.34-1.52-2.56-1-4.96.12-7.59,17.64-41.16,38.01-80.94,60.51-119.63,4.43-7.62,8.92-15.21,13.39-22.81,5.51-9.37,4.8-18.27-1.65-26.98-17.89-24.18-30.41-50.99-39.09-79.72-3.34-11.07-6.73-22.17-6.27-33.77.46-11.7,3.11-23.19,5.49-34.66,3.52-16.98,7.23-33.93,10.62-50.94,3.32-16.67,8.38-32.99,12.52-49.5,5.28-21.07,9.94-42.32,17.35-62.8,1.75-4.84,3.5-9.69,5.43-14.46,2.44-6.04,4.57-6.51,8.53-1.4,7.24,9.33,14.34,18.79,21.13,28.46,13.78,19.62,26.26,40.06,37.52,61.24,17.61,33.13,30.74,68.05,41.24,104.01,1.63,5.58,3.51,11.09,5.27,16.63Zm-98.08-161.63c1.67,4.85,3.13,9.26,4.72,13.62,7.33,20.1,16.08,39.75,20.36,60.83,2.06,10.17,4.25,20.32,6.05,30.56,1.65,9.43,3.42,18.86,3.53,28.33.15,13.03,3.4,25.25,7.5,37.34,1.48,4.36,4.38,7.92,9.72,8.08,7.36.22,14.38-4.86,15.72-12.06,1.91-10.29,2.44-20.78-.55-30.88-9.06-30.61-20.32-60.41-34.71-88.95-6.96-13.8-14.17-27.48-22.29-40.64-2.16-3.5-4.44-7.2-10.03-6.23Z"/><path class="cls-2" d="m1013.12,1106.13c16.32,0,32.71.97,48.94-.22,25.99-1.92,52.16-.67,78-4.72,2.79-.44,5.58-.93,8.36-1.4,1.4-.24,2.92-1.33,4.09.34,1.43,2.05-.63,3.07-1.57,4.17-8.4,9.9-16.85,19.76-25.37,29.55-23.92,27.51-47.86,54.99-71.83,82.45-5.12,5.87-6.34,5.96-13,1.61-33.63-21.95-66.19-45.33-96.62-71.6-1.26-1.09-2.48-2.22-3.69-3.37q-7.77-7.39-2.69-17.07c.38-.73.54-1.57.83-2.34,4.79-12.99,11.29-17.59,25.57-17.69,16.32-.11,32.64-.03,48.96-.03,0,.1,0,.21,0,.31Z"/><path class="cls-2" d="m860.32,1119.97c.59,4.33-1.3,9.67,1.25,14.81,2.14,4.32,5.65,6.93,9.76,8.87,3.17,1.49,5.6-.37,5.93-3.84.92-9.72,2.37-19.38,2.29-29.2-.03-3.06,1.33-6.18,5.4-5.67,10.45,1.32,20.94.68,31.41.83,6.54.1,7.62,2.22,4.55,8.1-9.18,17.6-22.43,31.27-39.89,40.79-1.9,1.03-3.84,1.99-5.8,2.91-8.85,4.17-15.41,2.89-22.8-3.77-11.71-10.56-17.94-24.12-21.98-38.95-.39-1.44-.73-2.9-1.07-4.36-2.43-10.64-1.25-11.66,9.44-9.69,5.15.95,10.49,1.08,15.76,1.16,4.02.06,5.85,1.65,5.77,5.66-.08,3.83-.02,7.66-.02,12.36Z"/><path class="cls-2" d="m963.15,1070.96c4.66-4.23,6.78-4.38,12.07-.88-3.88,2.22-7.87,3.06-12.07.88Z"/><path class="cls-2" d="m983.12,1069.18c2.16-2.02,4.75-.76,7.15-.95-1.93,3.72-4.46,2.99-7.15.95Z"/><path class="cls-2" d="m1255.88,944.32c-1.22-1.79.22-2.43,1.38-3.19,1.97,2.11.23,2.62-1.38,3.19Z"/><path class="cls-2" d="m1255.38,950.58c.07-1.31.14-2.61.21-3.91.35,1.33.66,2.65-.21,3.91Z"/><path class="cls-5" d="m1096.32,818.5c1.22,24.41-20.53,49.83-49.83,49.76-28.77-.07-50.16-23.79-50.09-50.14.07-26.14,21.42-48.37,44.79-48.8,33.53-.61,55.14,19.19,55.13,49.18Z"/><path class="cls-5" d="m1134.19,579.18c-1.77,9.93-1.14,19.95-.62,29.89.55,10.35-1.81,19.64-7.16,28.46-6.46,10.63-24.07,15.79-35.64,3.67-6.69-7.01-11.22-14.97-12.43-24.4-1.01-7.87,2.41-15.22,4.71-22.63,10.14-32.62,26.27-62.42,42.84-92.06,9.83-17.58,18.93-35.57,31.68-51.31,6.72-8.3,13.79-16.32,24.61-19.53l-.06-.07c.65,2.05-.86,3.46-1.59,5.06-9.56,21.03-20.79,41.29-28.84,63.01-6.12,16.51-10.67,33.52-14.1,50.72-1.85,9.27-3.99,18.74-3.36,28.41-.08.07-.24.15-.23.21.03.19.12.38.19.56Z"/><path class="cls-5" d="m1022.96,687.07c20.12,3.24,40.42,1.45,60.63,2.35,11.83.53,19.6,9.17,19.56,21.01-.01,3.4,1.05,6.51,1.7,9.74.86,4.28-5.42,14-9.63,14.93-.63.14-1.58.3-1.94-.03-4.35-4.06-8.57-1.17-12.84.09-7.37,2.17-14.47.45-21.53-1.61-6.84-2-13.59-4.56-20.81-4.73-4.53-.1-8.99,1.05-13.56-.73-8.71-3.39-14.94-9.85-21.19-16.3-3.34-3.44-2.79-7.43.05-10.8,3.52-4.2,7.26-8.24,11.58-11.7,2.37-1.9,5.03-2.46,7.98-2.22Z"/><path class="cls-5" d="m1182.18,431.27c.07-.1.15-.2.22-.3-.09.08-.19.16-.28.23,0,0,.06.07.06.07Z"/><path class="cls-3" d="m1134.19,579.18c-.07-.19-.16-.37-.19-.56,0-.06.15-.14.23-.21-.03.26-.04.51-.04.77Z"/><path class="cls-5" d="m797.33,853.35c-6.51-1.41-12.84-3.26-18.82-6.37-16.15-8.4-23.2-25.73-21.01-41.28,2.61-18.52,16.18-33.44,33.08-36.24,18.58-3.08,32.11,1.75,44.83,20.2,1.6,2.32,3.08,4.71,4.62,7.08,1.87,9.5,1.36,18.65-1.53,28.11-4.5,14.75-14.94,22.2-28.68,26.26-4.02,1.19-8.15,2.52-12.5,2.25Z"/><path class="cls-5" d="m866.05,719.02c-15.57,9.51-32.62,13.41-50.71,13.23-3.41-.04-6.65.55-9.62,2.18-4.06,2.23-8.19,2.35-12.54,1-4.31-1.34-8.73-2.1-13.13-.51-2.06.74-3.14-.55-4.32-1.62-8-7.19-7.28-16.13-5.02-25.37.2-.8.51-1.58.79-2.36,4.56-12.38,10.97-16.16,22.77-16.27,20.3-.19,40.6.38,60.91.59,2.81.03,5.16.96,7.3,2.73,1.91,1.57,3.53,3.55,5.94,4.48,3.51,7.77,2.59,15.06-2.36,21.92Z"/><path class="cls-5" d="m764.44,453.44c5.6-.97,7.87,2.73,10.03,6.23,8.13,13.16,15.33,26.84,22.29,40.64,14.39,28.54,25.65,58.34,34.71,88.95,2.99,10.1,2.46,20.59.55,30.88-1.34,7.2-8.36,12.28-15.72,12.06-5.34-.16-8.24-3.72-9.72-8.08-4.11-12.09-7.35-24.3-7.5-37.34-.11-9.47-1.88-18.9-3.53-28.33-1.79-10.24-3.98-20.4-6.05-30.56-4.28-21.08-13.03-40.73-20.36-60.83-1.59-4.36-3.04-8.77-4.72-13.62Z"/></g></svg>