<?xml version="1.0" encoding="UTF-8"?><svg id="Layer_652" xmlns="http://www.w3.org/2000/svg" width="1630.85" height="1377.25" viewBox="0 0 1630.85 1377.25"><defs><style>.cls-1{fill:#0190ff;}.cls-2{fill:#fefdfd;}.cls-3{fill:#0090fe;}.cls-4{fill:#d2686d;}.cls-5{fill:#fd7e01;}.cls-6{fill:#441d11;}</style></defs><rect class="cls-1" x="437.61" y="239.16" width="1080" height="1080"/><g id="Layer_653"><g><path class="cls-6" d="m568.66,802.61c-.23-10.6,2.31-20.89,3.62-31.31,1.1-8.74,2.51-17.44,3.82-26.15.96-6.44,1.83-12.89,3.07-19.28.33-1.7-.04-2.69-.89-3.99-15.93-24.49-26.39-51.27-32.02-79.82-3.35-16.97-5.17-34.28-4.1-51.61,1.13-18.23,4.51-36.13,9.42-53.8,5.97-21.49,15.18-41.47,27.2-60.06,17.56-27.17,40.06-49.59,67.2-67.37,24.92-16.33,52.11-26.69,81.27-32.21,15.76-2.98,31.69-4.56,47.7-3.85,27,1.2,53.08,6.86,78.42,16.46,19.38,7.35,36.99,17.68,53.31,30.13,15.55,11.87,29.59,25.39,41.34,41.28,9.31,12.59,18,25.45,24.89,39.51,9.21,18.79,14.9,38.73,19.09,59.14,2.92,14.22,3.96,28.64,3.9,43.12-.1,23.05-4.22,45.51-11.02,67.46-9.25,29.89-24.95,56.23-45.48,79.66-4.76,5.43-9.41,11.13-15.35,15.51-2.83,2.09-4.22,4.78-4.24,8.8-.06,18.22-3.28,35.9-9.44,53.15-2.54,7.11-5.46,14-8.49,20.88-.71,1.62-2.74,3.36-1.65,4.93,1.17,1.69,3.77.94,5.57.61,8.69-1.62,17.31-3.68,26-5.3,17.71-3.3,35.58-5.69,53.31-8.82,14.51-2.56,29.15-4.09,43.66-6.59,6.57-1.14,13.34-1.56,20-2.03,15.58-1.1,31.08-3.72,46.76-3.08,12.47.5,24.9,1.2,37.23,3.66,4.06.81,8.45,1.47,12.72,1.24,12.16-.65,23.76,2.59,35.37,5.28,10.74,2.49,21.42,5.42,31.63,9.77,32.23,13.73,57.33,35.11,72.21,67.36,5.87,12.72,9.34,26.29,11.09,40.09,2.29,18.1,2.34,36.19-.55,54.48-2.13,13.51-4.08,27.13-7.85,40.14-2.57,8.88,2.83,14.96,3.78,22.43,1.2,9.48.68,18.74-.8,27.97-.52,3.23-.02,6.22-.07,9.32-.25,17.66-.4,35.32-.69,52.98-.1,5.98-.41,11.95-.76,17.92-.26,4.45-1.7,8.71-5.03,11.63-6.5,5.7-12.11,12.3-18.44,18.12-10.54,9.68-23.16,12.72-37.14,9.41-5.59-1.32-11.01-1.12-16.53.45-8.22,2.35-17.68-.25-20.7-6.23-3.35-6.67-5.95-13.75-6.1-21.42-.11-5.72-.9-11.59,4.59-16.55-2.87-.15-3.88,1.42-4.71,2.54-10.24,13.85-24.57,20.17-41.01,23.25-11.62,2.18-23.07,2.92-34.59,0-5.35-1.36-9.66-5.5-15.43-5.8-10.11-.53-15.74-6.5-18.94-15.52-2.06-5.81-.58-11.23,1.66-16.54,3-7.12,3.09-7.04-4.48-7.12-7.95-.09-15.67.79-23.52,2.54-6.92,1.55-14.3,1.67-21.47,2.33-17.07,1.57-34.2,2.77-51.34,3.31-15.64.5-31.33.33-46.97-.26-16.77-.64-33.34-3.25-49.45-8.16-2.47-.75-5.26-.45-7.42-2.39-.94-.84-2.06-.26-3.13.52-6.85,4.96-11.51,11.47-14.93,19.2-3.64,8.23-6.84,16.58-9.91,25.04-3.32,9.15-10.92,14.57-19.36,18.98-15.52,8.11-32.02,10.89-48.55,5.58-10.08-3.24-19.87-4.58-30.26-4.89-8.5-.25-15.71-4.47-19.28-12.56-1.64-3.71-4.04-3.75-6.62-3.03-3.81,1.07-7.41,1.29-11.06-.16-4.55-1.81-9.07-1.15-13.56.08-14.95,4.09-27.29-5.5-28.92-19.87-.97-8.56,4.14-15.89,8.93-22.77,1.13-1.62,2.61-3.01,4.01-4.44,4.88-4.98,4.91-5.68,1.4-11.98-3.46-6.22-8.74-11.17-11.81-17.68-6.43-13.64-9.9-27.86-8.84-42.99.4-5.75-1.03-10.57-4.49-15.29-6.18-8.41-10.71-17.8-14.09-27.68-1.2-3.51-3.46-4.97-6.95-5.37-24.19-2.72-46.37-11.06-66.24-24.99-11.17-7.83-19.53-18.48-22.38-32.02-1.21-5.74-1.85-10-8.66-10.01-.31,0-.65-.16-.94-.32-2.95-1.66-7.89-2.47-7.73-5.99.16-3.62,4.34-6.48,7.87-7.53,6.65-1.98,7.88-7.26,8.52-12.6.64-5.36-3.61-8.19-7.77-10.4-4.01-2.13-7.82-4.43-10.61-8.11-3.29-4.35-2.67-6.04,2.55-7.44,7.37-1.97,14.42.52,21.47,1.78,7.07,1.27,8.57,1.37,12.04-4.59,7.06-12.11,14.47-23.96,23.52-34.72,2.36-2.81,4.68-5.66,7.68-7.82,3.57-2.58,2.88-5.1.2-7.82-3.71-3.78-7.38-7.57-10.74-11.7-10.32-12.7-15.06-27.17-14.6-43.45.85-1.5.76-3.02.1-4.55Zm103.41-69.67l-.06-.06c.15,2.11-.06,4.16.62,6.31,3.91,12.47,5.72,25.36,7.49,38.27.2,1.48-1.2,3.63.97,4.39,1.92.67,2.84-1.39,3.96-2.47,7.11-6.87,15.41-12.29,25.13-13.19,16.07-1.48,32.14-.87,47.01,7.09,4.99,2.67,6.25,1.99,7.64-3.48,2.2-8.63,4.8-17.1,8.08-25.39,8.09-20.53,18.37-39.79,31.7-57.45,16.54-21.9,37.23-38.2,62.99-47.92,6.02-2.27,8.03-1.67,11.49,3.63,10.03,15.36,18.18,31.69,25.03,48.69,6.5,16.13,10.53,32.93,13.81,49.95.23,1.19-.58,3.05,1.18,3.37,1.42.26,2.1-1.44,2.98-2.38,21.01-22.35,36.34-48.16,45.68-77.31,5.05-15.76,8.21-31.94,9.51-48.66,1.08-13.85.69-27.6-.77-41.12-2.52-23.34-9.37-45.77-19.82-66.94-14.3-28.98-34.13-53.5-59.68-73.3-20.27-15.71-42.64-27.26-67.25-34.77-13.46-4.11-27.17-6.67-41.01-8.01-11.11-1.07-22.34-1.26-33.67-.51-17.64,1.17-35,3.68-51.46,9.64-73.4,26.58-119.64,77.96-138.31,153.88-3.44,13.96-5.07,28.21-5.25,42.61-.08,6.29.64,12.55.87,18.8.42,11.6,2.75,22.91,5.63,33.94,4.35,16.66,10.3,32.9,19.15,48.27.91-2.47,1.72-4.73,2.58-6.97,3.74-9.76,6.84-19.82,13.16-28.37,1.15-1.55,2.19-3.43,4.54-3.55,8.69-.45,17.12.15,24.88,4.77,10.19,6.07,17.24,14.99,23.26,24.9,6.5,10.71,10.27,22.6,14.78,34.18.73,2.42,1.47,4.85,2.2,7.27,0,.79-.3,1.73.96,1.88Zm-98.04,208.81c-3.9,7.31-5.58,15.22-7.21,23.3-1.98,9.82,0,17.83,7.44,24.45,5.5,4.89,11.74,8.93,18.27,12.01,20.9,9.86,43.06,15.82,65.88,19.29,5.7.87,6.61-.05,6.63-5.89,0-1.83,0-3.67-.02-5.5-.03-7.31-1.98-9.69-9.41-10.42-2.59-.26-4.54-1.34-5.93-3.1-4.72-5.97-9.21-12.2-12.19-19.2-1.41-3.33-4.73-7.06-3.02-10.52,3.06-6.21,7.63-11.43,14.89-13.41,12.81-3.5,25.48-2.27,37.96,1.38,13.95,4.08,18.53,10.02,15.48,22.36-1.99,8.03-4.42,16.44-14.41,19.92-7.25,2.53-12.34,8.65-14.83,16.33-1.52,4.68,2.1,10.99,6.69,11.04,15.99.16,32.01.58,47.97-.09,16.2-.68,32.36-2.55,48.53-3.9,4.59-.38,9.22-.43,13.75-1.17,14.99-2.46,29.86-6.45,44.93-7.4,14.64-.93,31.65-22.75,30.39-36.51,5.86-6.87,6.74-15.6,6.99-23.78.53-18.02-4.08-35.63-6.25-53.45-.85-6.94-.71-13.48,2.07-20.01,3.93-9.21,8.69-17.95,13.93-26.45,3.16-5.13,5.67-10.52,6.48-16.58,1.42-10.56.65-21.07.12-31.68-1-20.03-2.14-39.97-4.91-59.9-2.65-19.06-6.99-37.51-13.76-55.41-3.47-9.19-7.99-17.93-14.48-25.48-2-2.33-4.19-3.55-6.68-.82-5.27,5.77-11.19,11.13-15.52,17.55-14.22,21.1-28.15,42.41-40.94,64.43-8.7,14.97-16.7,30.28-23.02,46.43-.97,2.47-2,4.92-5.68,4.27-7.85-1.38-15.74-2.58-23.65-3.64-8.74-1.17-17.52-2.03-26.31-.35-14.18-.24-28.31.38-42.38,2.2-2.03-6.13-4.14-12.24-6.07-18.4-10.04-32.13-26.3-60.94-46.67-87.56-2.33-3.04-3.91-3.18-5.48.61-2.67,6.46-4.71,13.13-6.56,19.86-7.17,26.05-13.24,52.37-18.63,78.83-1.17,5.74-1.44,12.25.03,17.84,4.31,16.43,10.53,32.26,20.83,46.01,4.93,6.57,4.68,12.49.59,19.23-13.21,21.76-25.37,44.08-35.05,67.68-.75,1.82-2.05,3.52-.8,5.61Zm281.54,85.3c-10.97,3.73-21.43,8.17-26.91,19.5-.42.88-1.23,1.56-1.82,2.37-12.14,16.66-25.4,32.4-39.02,47.85-1.11-.06-1.84.56-2.52,1.32-4.5,5.07-9.67,9.4-15.67,12.51-3.39,1.76-6.98,4.88-11.22,2.07-19.61-12.99-39.23-26-56.04-42.67-2.96-2.93-5.58-2.9-8.63-.29-3.79,3.24-7.79,6.11-12.68,7.63-3.49,1.09-4.91,3.76-5.12,7.49-.22,3.88.91,7.53,1.28,11.3.79,8.04,2.55,15.83,7.3,22.68,5.27,7.6,10.36,15.33,14.47,23.66,4.59,9.31,4.29,16.18-1.86,20.43-5.87,4.06-9.51,9.67-12.91,15.59-2.16,3.76-.2,7.01,4.25,7.35,3.36.26,6.53-.48,9.65-1.63,3.12-1.15,6.11-1.66,9.52-.38,10.54,3.94,13.61,2.74,19.42-6.93,2.78-4.62,6.2-8.28,11.27-10.73,7.22-3.5,11.6-9.09,10.78-17.89-.32-3.48-1.64-6.65-2.03-10.16,2.98-.54,5.89-.46,8.82.45,5.34,1.68,10.82,2.43,16.44,2.29,7.75-.2,8.21-.07,10.74,7.36,4.67,13.68,3.14,18.64-8.65,25.82-3.26,1.99-6.65,3.77-9.94,5.71-6.93,4.09-14.6,7.01-20.48,12.79-1.48,1.45-3.99,2.46-2.91,5.16,1.04,2.61,3.5,3.56,6.07,3.67,3.82.17,7.67.16,11.49-.07,6.74-.41,12.99.62,18.89,4.29,4.05,2.51,8.96,3.1,13.61,3.15,13.02.15,24.39-4.62,34.25-12.95,2.82-2.38,4.55-5.58,4.74-9.5.15-3.07,1.2-5.91,2.51-8.75,4.45-9.62,10.44-18.33,15.57-27.53,2.54-4.55,5.25-5.36,9.64-5.18,10.07.4,19.93-.9,29.68-3.67,3.51-1,7.38-2.16,11.2-1.16,11.52,2.99,23.41,3.65,35.1,3.64,32.98-.02,65.99,1.91,98.94-2.54,16.84-2.28,33.97-1.74,50.71-6.02,15.16-3.88,31.02-4.82,45.65-11.09,2.49-1.07,5.43-1.39,8.31-1.16,1.37.11,2.78.03,3.33,1.55.54,1.48-.8,1.98-1.72,2.63-1.68,1.2-1.22,3-1.15,4.59.17,3.86-1.14,7.18-3.63,9.97-5.83,6.56-12.88,11.39-21.15,14.39-8.02,2.91-16.31,5.45-20.7,13.73-.94,1.78-3.68,3.08-1.63,6,1.75,2.5,3.81,3.62,6.73,3.15,4.39-.7,8.04,1.11,11.63,3.24,1.56.92,3.06,2.46,4.7,2.62,19.06,1.89,37.65,1.21,53.26-12.01,2.3-1.95,3.91-2.06,6.56-.97,4.17,1.7,8.48,2.22,12.66-.67.97-.67,2.5-1.89,3.91-.98.88,1.81-2.14,2.62-.83,4.64,3.41-2.58,6.6-5.27,10.07-7.52,2.55-1.65,3.55-3.56,3.42-6.57-.14-3.07-.67-6.27.96-9.21,3.49-6.25,7.63-12.17,9.43-19.28.23-.89,1.28-2.37,3.17-2.31,2.28,8.33,3.19,16.8,3.55,25.49.5,12.04-1.4,22.29-13.3,28.39-2.87,1.47-6.55,3.46-2.99,7.99.71.9.41,3.06-.11,4.35-1.11,2.71-1.57,5.42,1.15,6.97,2.23,1.27,5.27.44,7.15-.94,5.63-4.14,11.26-4,16.95-.75,7.78,4.45,14.84,2.34,21.81-1.82,6.39-3.82,10.34-10.29,16.02-14.84,4.32-3.46,5.62-7.68,5.62-13.05-.01-21.99.27-43.97.51-65.96.03-2.43.44-4.91.66-7.3.61-6.6,2.93-12.92,1.7-19.89-1.46-8.21-6.44-14.26-10.4-21-1.27-2.16-2.12-3.81-1.19-6.74,4-12.64,6.7-25.57,7.28-38.9.27-6-1.43-11.8-1.23-17.76.79-10.53-.91-20.85-2.86-31.11-6.53-34.44-22.07-63.68-50.63-84.87-15.3-11.35-31.84-20.5-50.83-24.51-20.97-4.44-42.38-4.75-63.58-6.26-21.32-1.52-42.84-1.25-64.3.46-15.69,1.25-31.29,2.83-46.87,5.11-37.79,5.53-73.53,16.65-105.81,37.63-5.71,3.71-6.11,4.57-3.81,10.95,4.27,11.88,7.84,23.91,9.01,36.56.34,3.65,1.65,6.07,6.1,4.37,1.49-.57,3.27-.42,4.92-.5,9.82-.51,19.4,1.1,29.01,2.9,4.83.91,6.94,3.53,5.26,8.23-1.88,5.25-6.1,7.34-11.26,7.55-6.49.27-12.99.08-19.48.26-3.63.1-7.72-1.26-10.77.8-3.34,2.25-1.84,6.54-2.17,10.01-.07.78-.64,1.51-.79,2.29-.65,3.45.36,5.68,4.33,5.27,8.74-.9,17.16,1.23,25.63,2.71,3.1.54,5.01,2.28,5.22,5.7.38,6.19-3.07,10.12-9.4,10.25-9.49.19-18.98.29-28.48.37-2.41.02-4.65.08-5.97,2.62-3.83,7.34-9.76,12.99-15.36,18.89-4,2.06-7.71,4.55-11.26,7.31Zm-104.06,14.82s0-.06,0-.09c-9.99,0-19.99.11-29.98-.03-8.47-.12-10.52,6.64-13.08,12.38-2.03,4.55,2.74,6.39,5.27,8.56,14.65,12.59,30.28,23.89,46.37,34.6,4.76,3.17,7.2,2.63,10.66-1.45,15.41-18.13,31.09-36.04,46.65-54.05.71-.83,2.09-1.61,1.31-2.91-.81-1.33-2.17-.38-3.17-.1-11.49,3.27-23.4,1.6-35.07,2.88-9.54,1.05-19.3.21-28.96.21Zm-93.27-3.16c-2.31-.13-4.75-.22-4.02,3.2,1.98,9.22,5.13,17.88,12.5,24.37,2.85,2.51,6.19,3.67,9.68,2.27,11.23-4.52,19.58-12.28,24.98-23.17,1.31-2.63.42-3.67-2.34-3.7-5.3-.05-10.62.46-15.91-.51-2.37-.43-2.61,1.65-2.81,3.25-.52,4.09-.83,8.2-1.32,12.29-.16,1.34.94,3.28-1.1,3.86-1.65.47-3.35-.27-4.62-1.35-1.82-1.56-2.86-3.6-2.87-6.11-.01-3.32-.12-6.64-.2-9.97-.03-1.54-.08-3.33-2.18-3.16-3.38.27-6.51-1-9.79-1.26Z"/><path class="cls-6" d="m1330.61,806.82c11.33.68,19.2,7.41,25.88,15.61,8.12,9.98,10.71,22.22,12.26,34.58.89,7.13-3.97,14.57-9.65,16.33-7.1,2.2-13.39-.4-17.81-7.7-7.77-12.83-15.07-25.93-24.57-37.66-2.88-3.55-2.65-7.86-.68-12.11,2.91-6.24,7.69-9.21,14.58-9.06Z"/><path class="cls-6" d="m1398.88,1029c-.84,17.75-6.87,33.06-21.53,43.88-4.95,3.66-10.73,5.92-17.26,6.09-6.56.17-10.05-3.56-12.57-8.65-2.38-4.81-3.61-9.33.98-14.28,9.9-10.7,16.37-23.82,23.97-36.14,4.2-6.81,11.38-9.78,20.01-6.71,4.59,1.63,5.88,5.91,6.38,10.32.2,1.81.03,3.66.03,5.49Z"/><path class="cls-6" d="m1430.8,1063.39c-.24,10.6-9.87,20.7-20.34,21.48-5.86.44-11.66-8.55-8.85-14.17,3.54-7.07,7.34-14.03,11.34-20.85,3.07-5.22,6.63-5.48,10.68-1.03,3.81,4.18,6.81,8.84,7.17,14.56Z"/><path class="cls-6" d="m1398.87,822.05c.94,7.57-4.05,12.11-8.79,16.6-2.13,2.02-5.03,2.16-6.74-.79-4.87-8.41-9.69-16.86-14.21-25.46-1.48-2.82,2.58-8.16,6.59-9.58,10.93-3.87,25.04,6.26,23.15,19.22Z"/><path class="cls-4" d="m568.66,802.61c.66,1.53.75,3.05-.1,4.55-.72-1.53-.85-3.05.1-4.55Z"/><path class="cls-3" d="m668.91,723.79c-4.5-11.58-8.27-23.47-14.78-34.18-6.02-9.92-13.07-18.83-23.26-24.9-7.76-4.62-16.2-5.23-24.88-4.77-2.35.12-3.39,2-4.54,3.55-6.32,8.55-9.43,18.61-13.16,28.37-.86,2.24-1.67,4.51-2.58,6.97-8.84-15.37-14.8-31.61-19.15-48.27-2.88-11.03-5.21-22.33-5.63-33.94-.23-6.26-.95-12.52-.87-18.8.18-14.4,1.82-28.64,5.25-42.61,18.67-75.91,64.92-127.29,138.31-153.88,16.46-5.96,33.81-8.47,51.46-9.64,11.33-.75,22.55-.56,33.67.51,13.84,1.34,27.55,3.91,41.01,8.01,24.61,7.51,46.98,19.06,67.25,34.77,25.56,19.8,45.39,44.33,59.68,73.3,10.44,21.17,17.3,43.59,19.82,66.94,1.46,13.52,1.85,27.28.77,41.12-1.3,16.71-4.46,32.89-9.51,48.66-9.33,29.15-24.67,54.96-45.68,77.31-.88.93-1.56,2.63-2.98,2.38-1.76-.32-.95-2.18-1.18-3.37-3.28-17.02-7.31-33.82-13.81-49.95-6.85-17-15-33.33-25.03-48.69-3.46-5.3-5.47-5.9-11.49-3.63-25.76,9.72-46.46,26.01-62.99,47.92-13.33,17.65-23.61,36.92-31.7,57.45-3.27,8.3-5.88,16.76-8.08,25.39-1.39,5.46-2.65,6.15-7.64,3.48-14.87-7.97-30.94-8.58-47.01-7.09-9.72.9-18.03,6.32-25.13,13.19-1.12,1.08-2.04,3.15-3.96,2.47-2.17-.76-.77-2.91-.97-4.39-1.76-12.9-3.58-25.8-7.49-38.27-.68-2.16-.47-4.21-.62-6.32,1.77-.19,2.52,1.39,3.67,2.2,4.93,3.48,10.33,6.21,16.29,6.69,27.43,2.2,49.36-10.87,60.26-35.78,3.64-8.32,6.79-16.86,10.23-25.28,6.68-16.38,11.6-33.32,15.43-50.55,1.11-5,3.38-6.38,7.72-5.22,2.75.74,5.53.74,8.29,1.14,12.6,1.86,25.18,3.82,37.76,5.81,4.65.74,7.99-.09,8.21-5.72.05-1.25.35-2.5.9-3.78,2.15-4.99,1.57-5.73-3.93-6.48-17.03-2.31-34.04-4.75-51.1-6.86-2.75-.34-3.06-1.63-2.7-3.51,1.84-9.5,3.87-18.96,5.72-28.46.33-1.68.86-2.16,2.6-1.89,14.23,2.23,28.49,4.32,42.73,6.54,9.64,1.5,9.63,1.56,12.76-7.54,2.08-6.04,1.87-6.58-4.72-7.54-16.04-2.34-32.09-4.59-48.17-6.68-2.75-.36-2.7-1.27-2.02-3.42,2.08-6.56,4.17-13.12,5.92-19.77,3.75-14.18,7.74-28.28,12.17-42.26,2.83-8.93,8.06-16.38,14.56-22.95,6.61-6.69,15.39-6.41,21.88.53,3.3,3.52,6.36,7.27,9.65,10.79,1.8,1.93,4.1,4.31,6.61,3.82,3.06-.59,7.49.1,8.54-4.39,1.04-4.48,2.09-9.38-.41-13.45-2.72-4.43-7.02-7.8-12.07-9.28-17.44-5.12-34.01-3.68-48.71,7.98-13.97,11.08-22.64,25.88-29.12,42.21-5.28,13.3-8.15,27.34-12.91,40.8-.97,2.73-2.48,3.75-5.03,3.31-5.18-.89-10.36-1.61-15.58-2.26-13.19-1.64-26.32-3.76-39.47-5.71-1.6-.24-2.64.27-2.76,1.98-.28,3.95-1.52,7.77-1.36,11.81.08,2.13.76,2.85,2.79,3.18,5.47.89,10.87,2.22,16.35,2.99,13.25,1.85,26.49,3.71,39.64,6.32-1.91,9.07-4.02,17.86-5.54,26.76-.84,4.93-3.8,5.8-7.54,4.65-3.52-1.08-7.12-1.15-10.65-1.74-12.72-2.15-25.54-3.74-38.3-5.67-1.61-.24-2.1-.2-2.74,1.55-1.13,3.04-.31,6.24-1.42,9.25-1.02,2.77-.45,4.51,3.15,5.01,14.81,2.06,29.59,4.41,44.37,6.7,7.38,1.14,8.36,2.34,6.76,9.48-2.63,11.76-5.5,23.46-8.33,35.17-2.83,11.72-5.49,23.48-8.67,35.1-3.11,11.34-7.71,22.15-16.82,30.05-9.26,8.03-17.07,7.27-24.45-3.33-1.14-1.64-2.31-3.27-3.28-5.01-3.1-5.55-8.13-7.23-13.87-6.14-4.97.94-5.24,5.82-6.4,9.72Z"/><path class="cls-5" d="m866.83,1019.74c5.61-5.9,11.53-11.55,15.36-18.89,1.32-2.53,3.56-2.6,5.97-2.62,9.49-.08,18.99-.18,28.48-.37,6.33-.13,9.79-4.07,9.4-10.25-.21-3.42-2.12-5.16-5.22-5.7-8.48-1.48-16.89-3.61-25.63-2.71-3.96.41-4.98-1.82-4.33-5.27.15-.79.71-1.51.79-2.29.33-3.47-1.17-7.76,2.17-10.01,3.05-2.06,7.14-.69,10.77-.8,6.49-.19,12.99,0,19.48-.26,5.16-.21,9.38-2.3,11.26-7.55,1.68-4.7-.44-7.32-5.26-8.23-9.61-1.8-19.19-3.41-29.01-2.9-1.65.09-3.43-.07-4.92.5-4.45,1.7-5.76-.72-6.1-4.37-1.16-12.65-4.74-24.68-9.01-36.56-2.29-6.38-1.9-7.24,3.81-10.95,32.27-20.98,68.01-32.1,105.81-37.63,15.57-2.28,31.18-3.85,46.87-5.11,21.46-1.71,42.99-1.98,64.3-.46,21.2,1.51,42.61,1.83,63.58,6.26,18.99,4.02,35.53,13.17,50.83,24.51,28.56,21.18,44.09,50.43,50.63,84.87,1.95,10.26,3.65,20.58,2.86,31.11-3.73.23-4.02,3.91-5.75,6-28.24,34.24-61.95,61.64-101.61,81.58-30.43,15.3-62.68,25.08-96.14,31.15-12.49,2.26-25.09,3.85-37.68,4.87-11.91.96-23.96.13-35.94.23-18.89.16-37.67-1.18-56.31-4.13-9.87-1.56-19.55-4.32-29.44-5.69-11.59-1.61-20.26-6.45-24.19-18.01-.68-2.01-1.21-4.09-2.01-6.05-8.4-20.61-13.15-42-13.81-64.26Z"/><path class="cls-2" d="m866.83,1019.74c.66,22.27,5.41,43.65,13.81,64.26.8,1.96,1.32,4.04,2.01,6.05,3.93,11.56,12.6,16.39,24.19,18.01,9.88,1.38,19.57,4.13,29.44,5.69,18.64,2.95,37.42,4.29,56.31,4.13,11.99-.1,24.04.73,35.94-.23,12.59-1.02,25.19-2.6,37.68-4.87,33.46-6.07,65.71-15.85,96.14-31.15,39.66-19.94,73.38-47.34,101.61-81.58,1.73-2.09,2.02-5.78,5.75-6-.2,5.96,1.49,11.76,1.23,17.76-.59,13.33-3.29,26.26-7.28,38.9-.93,2.93-.08,4.57,1.19,6.74,3.96,6.73,8.94,12.78,10.4,21,1.24,6.97-1.08,13.3-1.7,19.89-.22,2.39-.64,4.87-.66,7.3-.25,21.99-.53,43.97-.51,65.96,0,5.37-1.3,9.59-5.62,13.05-5.68,4.55-9.63,11.02-16.02,14.84-6.97,4.17-14.03,6.27-21.81,1.82-5.69-3.25-11.32-3.39-16.95.75-1.88,1.38-4.92,2.21-7.15.94-2.72-1.55-2.25-4.26-1.15-6.97.53-1.29.82-3.46.11-4.35-3.56-4.53.12-6.51,2.99-7.99,11.9-6.1,13.79-16.35,13.3-28.39-.36-8.7-1.27-17.16-3.55-25.49-1.88-.06-2.94,1.42-3.17,2.31-1.8,7.11-5.95,13.03-9.43,19.28-1.64,2.94-1.1,6.14-.96,9.21.14,3.02-.87,4.93-3.42,6.57-3.48,2.25-6.66,4.94-10.07,7.52-1.31-2.02,1.71-2.82.83-4.64-1.41-.91-2.95.31-3.91.98-4.18,2.89-8.49,2.37-12.66.67-2.66-1.09-4.26-.97-6.56.97-15.61,13.22-34.2,13.89-53.26,12.01-1.64-.16-3.15-1.7-4.7-2.62-3.59-2.13-7.24-3.94-11.63-3.24-2.92.46-4.98-.66-6.73-3.15-2.05-2.92.69-4.22,1.63-6,4.39-8.28,12.68-10.82,20.7-13.73,8.27-3,15.32-7.83,21.15-14.39,2.49-2.8,3.8-6.12,3.63-9.97-.07-1.59-.53-3.39,1.15-4.59.92-.66,2.25-1.16,1.72-2.63-.55-1.52-1.96-1.44-3.33-1.55-2.88-.23-5.82.09-8.31,1.16-14.63,6.27-30.5,7.21-45.65,11.09-16.73,4.29-33.87,3.75-50.71,6.02-32.95,4.46-65.96,2.52-98.94,2.54-11.69,0-23.58-.65-35.1-3.64-3.82-.99-7.69.17-11.2,1.16-9.75,2.77-19.61,4.07-29.68,3.67-4.4-.17-7.1.63-9.64,5.18-5.13,9.19-11.12,17.91-15.57,27.53-1.31,2.84-2.36,5.68-2.51,8.75-.19,3.92-1.92,7.11-4.74,9.5-9.86,8.33-21.23,13.1-34.25,12.95-4.65-.05-9.56-.64-13.61-3.15-5.89-3.66-12.14-4.7-18.89-4.29-3.82.23-7.67.24-11.49.07-2.57-.11-5.03-1.06-6.07-3.67-1.08-2.7,1.44-3.71,2.91-5.16,5.88-5.77,13.55-8.7,20.48-12.79,3.29-1.94,6.68-3.72,9.94-5.71,11.79-7.18,13.32-12.14,8.65-25.82-2.54-7.43-2.99-7.56-10.74-7.36-5.63.14-11.1-.61-16.44-2.29-2.93-.92-5.84-.99-8.82-.45.38,3.51,1.7,6.68,2.03,10.16.82,8.8-3.56,14.39-10.78,17.89-5.06,2.45-8.49,6.11-11.27,10.73-5.81,9.67-8.88,10.88-19.42,6.93-3.41-1.28-6.41-.76-9.52.38-3.12,1.15-6.29,1.89-9.65,1.63-4.45-.35-6.41-3.6-4.25-7.35,3.4-5.92,7.04-11.53,12.91-15.59,6.16-4.25,6.45-11.13,1.86-20.43-4.11-8.33-9.2-16.06-14.47-23.66-4.75-6.85-6.51-14.64-7.3-22.68-.37-3.77-1.49-7.41-1.28-11.3.21-3.72,1.62-6.4,5.12-7.49,4.89-1.52,8.9-4.39,12.68-7.63,3.05-2.61,5.67-2.65,8.63.29,16.81,16.67,36.42,29.68,56.04,42.67,4.24,2.81,7.83-.31,11.22-2.07,5.99-3.11,11.17-7.44,15.67-12.51.68-.77,1.41-1.39,2.52-1.32,5.91,3.01,11.83,6.01,17.74,9.03,16.43,8.39,16.61,8.65,31.92-1.5,21.98-14.58,27.41-32.33,23.79-56.01-1.13-7.38-5.08-13.82-5.7-21.23,3.55-2.75,7.26-5.25,11.26-7.31Z"/><path class="cls-5" d="m714.22,789.85c8.79-1.68,17.57-.82,26.31.35,7.9,1.06,15.79,2.27,23.65,3.64,3.69.65,4.72-1.81,5.68-4.27,6.32-16.15,14.32-31.46,23.02-46.43,12.79-22.02,26.72-43.33,40.94-64.43,4.33-6.42,10.25-11.78,15.52-17.55,2.49-2.73,4.68-1.51,6.68.82,6.49,7.55,11.01,16.29,14.48,25.48,6.76,17.9,11.1,36.35,13.76,55.41,2.77,19.93,3.91,39.87,4.91,59.9.53,10.61,1.3,21.12-.12,31.68-.82,6.06-3.33,11.45-6.48,16.58-5.24,8.51-10.01,17.24-13.93,26.45-2.78,6.53-2.92,13.07-2.07,20.01,2.17,17.82,6.79,35.43,6.25,53.45-.24,8.18-1.12,16.91-6.99,23.78-5.48.32-9.93,3.2-14.52,5.79-9.93,5.61-20.84,7.73-31.99,7.15-8.35-.44-16.58-2.75-24.91-3.86-15.86-2.12-31.15-5.94-45.21-13.84-31.84-17.89-46.02-46.32-48.01-81.61-.86-15.23-1.15-30.54.9-45.77,1.4-10.44,3.7-20.69,5.96-30.96,1.63-7.39,5.43-14.15,6.2-21.78Zm75.78,105.62c0-15.94-9.63-24.56-27.46-24.58-12.52-.02-22.69,11.11-22.63,24.78.06,14.65,11.22,25.13,26.77,25.16,12.64.02,23.33-11.6,23.32-25.36Zm44.57-196.76c-6.2,1.86-9.73,5.58-12.99,9.61-6.1,7.54-10.59,16.1-15.27,24.54-8.96,16.15-17.42,32.47-23.33,50.1-2.93,8.75-1.78,15.83,4.58,22.24,5.73,5.77,13.86,4.87,18.26-2.04,2.58-4.04,3.74-8.5,3.54-13.29-1.01-24.08,4.14-46.89,14.28-68.64,3.36-7.22,6.95-14.34,10.93-22.52Zm-40.43,145.25c.14-10.43-3.44-13.92-13.94-14.21-8.08-.22-16.22.92-24.25-.91-6.68-1.52-9.8,3.69-13.56,7.44-.97.97-.96,3.26-.02,4.25,4.1,4.31,8.13,9.38,14.68,9.34,5.99-.04,11.63,1.12,16.97,3.32,5.8,2.38,11.03-2.34,16.62-.63.24.07.68-.68,1.09-.94,2.99-1.88,2.05-4.97,2.39-7.66Z"/><path class="cls-2" d="m714.22,789.85c-.77,7.63-4.57,14.39-6.2,21.78-2.26,10.27-4.55,20.52-5.96,30.96-2.05,15.23-1.75,30.54-.9,45.77,1.99,35.29,16.17,63.72,48.01,81.61,14.07,7.9,29.36,11.72,45.21,13.84,8.33,1.11,16.56,3.43,24.91,3.86,11.15.58,22.07-1.54,31.99-7.15,4.59-2.6,9.04-5.47,14.52-5.79,1.26,13.76-15.75,35.58-30.39,36.51-15.07.96-29.94,4.95-44.93,7.4-4.53.74-9.17.79-13.75,1.17-16.18,1.34-32.33,3.21-48.53,3.9-15.96.67-31.98.25-47.97.09-4.59-.04-8.21-6.36-6.69-11.04,2.49-7.67,7.58-13.8,14.83-16.33,9.99-3.48,12.42-11.89,14.41-19.92,3.05-12.33-1.53-18.28-15.48-22.36-12.47-3.65-25.14-4.88-37.96-1.38-7.25,1.98-11.83,7.2-14.89,13.41-1.7,3.46,1.61,7.19,3.02,10.52,2.97,7.01,7.47,13.23,12.19,19.2,1.39,1.76,3.34,2.85,5.93,3.1,7.43.73,9.38,3.11,9.41,10.42,0,1.83.02,3.67.02,5.5-.01,5.84-.93,6.76-6.63,5.89-22.82-3.47-44.98-9.44-65.88-19.29-6.53-3.08-12.77-7.12-18.27-12.01-7.45-6.62-9.42-14.63-7.44-24.45,1.63-8.08,3.31-15.99,7.21-23.3,13.48,5.59,26.17,3.37,38.27-4.01,10.36-6.32,18.56-14.98,25.88-24.53,9.6-.81,17.53-4.15,21.06-14.03,1.78-4.98.32-10.16.79-15.22,8.25-11.63,11.08-25.08,13.02-38.82,2.78-3.55,2.84-7.43,1.35-11.48.11-1.8.21-3.6.33-5.4.81-12.21-3.35-24.03-2.9-36.21,14.07-1.82,28.2-2.44,42.38-2.2Z"/><path class="cls-2" d="m668.91,723.79c1.16-3.91,1.43-8.78,6.4-9.72,5.73-1.09,10.77.59,13.87,6.14.97,1.74,2.14,3.37,3.28,5.01,7.38,10.6,15.18,11.35,24.45,3.33,9.11-7.9,13.72-18.71,16.82-30.05,3.18-11.62,5.84-23.39,8.67-35.1,2.83-11.71,5.7-23.41,8.33-35.17,1.6-7.14.62-8.34-6.76-9.48-14.78-2.29-29.56-4.63-44.37-6.7-3.6-.5-4.18-2.25-3.15-5.01,1.11-3.01.3-6.21,1.42-9.25.65-1.74,1.14-1.79,2.74-1.55,12.76,1.93,25.58,3.52,38.3,5.67,3.53.6,7.13.67,10.65,1.74,3.74,1.14,6.7.28,7.54-4.65,1.52-8.9,3.63-17.7,5.54-26.76-13.15-2.61-26.39-4.47-39.64-6.32-5.48-.76-10.88-2.1-16.35-2.99-2.02-.33-2.7-1.04-2.79-3.18-.16-4.04,1.08-7.86,1.36-11.81.12-1.71,1.16-2.22,2.76-1.98,13.15,1.94,26.28,4.07,39.47,5.71,5.22.65,10.41,1.37,15.58,2.26,2.55.44,4.06-.58,5.03-3.31,4.77-13.46,7.63-27.5,12.91-40.8,6.48-16.33,15.15-31.13,29.12-42.21,14.7-11.66,31.26-13.1,48.71-7.98,5.05,1.48,9.35,4.85,12.07,9.28,2.5,4.07,1.46,8.97.41,13.45-1.04,4.49-5.48,3.8-8.54,4.39-2.52.48-4.81-1.89-6.61-3.82-3.29-3.53-6.36-7.27-9.65-10.79-6.49-6.94-15.27-7.22-21.88-.53-6.5,6.57-11.72,14.02-14.56,22.95-4.43,13.98-8.43,28.08-12.17,42.26-1.76,6.65-3.84,13.21-5.92,19.77-.68,2.14-.73,3.06,2.02,3.42,16.07,2.09,32.13,4.34,48.17,6.68,6.59.96,6.8,1.5,4.72,7.54-3.13,9.1-3.12,9.04-12.76,7.54-14.24-2.22-28.49-4.31-42.73-6.54-1.74-.27-2.27.2-2.6,1.89-1.85,9.5-3.87,18.96-5.72,28.46-.36,1.88-.05,3.17,2.7,3.51,17.05,2.11,34.07,4.55,51.1,6.86,5.5.74,6.08,1.49,3.93,6.48-.55,1.28-.85,2.53-.9,3.78-.22,5.63-3.56,6.46-8.21,5.72-12.58-1.99-25.16-3.95-37.76-5.81-2.75-.41-5.53-.41-8.29-1.14-4.34-1.16-6.61.22-7.72,5.22-3.84,17.22-8.75,34.17-15.43,50.55-3.43,8.42-6.58,16.96-10.23,25.28-10.9,24.91-32.83,37.98-60.26,35.78-5.97-.48-11.36-3.21-16.29-6.69-1.16-.82-1.9-2.4-3.67-2.2,0,0,.06.06.06.06.48-1.03-.32-1.42-.96-1.88-.73-2.42-1.47-4.85-2.2-7.27Z"/><path class="cls-5" d="m671.84,792.05c-.45,12.18,3.71,24,2.9,36.21-.12,1.8-.22,3.6-.34,5.4-2.51-1.5-4.46-3.78-7.9-3.73-9.8.14-19.61-.14-29.42-.11-9.19.03-15.7,10.34-12.03,18.85,1.24,2.88,3.23,3.95,6.46,4.43,5.52.81,10.69-.59,16.03-1.03,9-.75,17.66-2.23,25.52-6.91-1.94,13.75-4.78,27.19-13.02,38.82-2.04-2.6-3.98-5.28-6.14-7.78-5.48-6.33-15.96-7.54-23.69-3.89-7.82,3.7-12.92,12.6-12.08,21.15,1.02,10.41,7.59,16.89,20.05,19.77-7.33,9.55-15.52,18.21-25.88,24.53-12.09,7.38-24.79,9.6-38.27,4.01-1.25-2.09.05-3.79.8-5.61,9.69-23.59,21.84-45.92,35.05-67.68,4.09-6.74,4.33-12.66-.59-19.23-10.3-13.75-16.52-29.58-20.83-46.01-1.47-5.59-1.19-12.09-.03-17.84,5.39-26.46,11.46-52.78,18.63-78.83,1.85-6.73,3.88-13.39,6.56-19.86,1.57-3.79,3.15-3.65,5.48-.61,20.37,26.62,36.63,55.43,46.67,87.56,1.93,6.16,4.04,12.27,6.07,18.4Zm-50.01-82.1c1.73,4.81,3.21,9.32,4.96,13.72,5.69,14.38,9.47,29.2,11.34,44.58,1.09,8.94.82,18.13,4.41,26.7,1.2,2.85,2.2,5.9,5.89,5.78,3.83-.13,6.43-2.21,7.6-6.05,1.83-5.98.94-11.94-.76-17.58-6.72-22.33-15.97-43.6-28.05-63.6-1.1-1.83-2.13-3.7-5.39-3.55Z"/><path class="cls-4" d="m751.51,1041.87c9.66,0,19.41.83,28.96-.21,11.68-1.28,23.58.39,35.07-2.88,1-.28,2.36-1.23,3.17.1.78,1.3-.6,2.08-1.31,2.91-15.56,18-31.24,35.91-46.65,54.05-3.47,4.08-5.91,4.62-10.66,1.45-16.09-10.71-31.72-22.01-46.37-34.6-2.52-2.17-7.29-4.01-5.27-8.56,2.56-5.74,4.61-12.5,13.08-12.38,9.99.14,19.99.03,29.98.03,0,.03,0,.06,0,.09Z"/><path class="cls-5" d="m855.57,1027.05c.61,7.4,4.57,13.84,5.7,21.23,3.62,23.68-1.82,41.43-23.79,56.01-15.31,10.16-15.48,9.9-31.92,1.5-5.91-3.02-11.82-6.02-17.74-9.03,13.62-15.45,26.89-31.19,39.02-47.85.59-.8,1.39-1.49,1.82-2.37,5.49-11.33,15.94-15.77,26.91-19.5Z"/><path class="cls-4" d="m658.24,1038.71c3.28.26,6.4,1.53,9.79,1.26,2.1-.17,2.14,1.63,2.18,3.16.08,3.32.19,6.64.2,9.97,0,2.51,1.05,4.55,2.87,6.11,1.27,1.09,2.97,1.83,4.62,1.35,2.04-.59.94-2.52,1.1-3.86.49-4.09.81-8.2,1.32-12.29.2-1.6.45-3.68,2.81-3.25,5.29.97,10.61.46,15.91.51,2.76.03,3.65,1.06,2.34,3.7-5.4,10.89-13.75,18.65-24.98,23.17-3.49,1.41-6.83.24-9.68-2.27-7.37-6.49-10.52-15.14-12.5-24.37-.73-3.41,1.71-3.32,4.02-3.2Z"/><path class="cls-3" d="m671.11,731.06c.64.46,1.44.84.96,1.88-1.26-.15-.95-1.09-.96-1.88Z"/><path class="cls-6" d="m790,895.47c0,13.76-10.68,25.38-23.32,25.36-15.55-.02-26.71-10.51-26.77-25.16-.05-13.67,10.11-24.8,22.63-24.78,17.83.03,27.45,8.64,27.46,24.58Z"/><path class="cls-6" d="m834.56,698.71c-3.98,8.18-7.57,15.3-10.93,22.52-10.13,21.75-15.28,44.56-14.28,68.64.2,4.79-.97,9.25-3.54,13.29-4.4,6.91-12.53,7.81-18.26,2.04-6.36-6.41-7.51-13.48-4.58-22.24,5.91-17.62,14.37-33.95,23.33-50.1,4.68-8.44,9.16-17,15.27-24.54,3.26-4.03,6.79-7.75,12.99-9.61Z"/><path class="cls-6" d="m794.14,843.96c-.35,2.69.59,5.78-2.4,7.66-.41.26-.85,1.01-1.09.94-5.6-1.71-10.82,3.01-16.62.63-5.34-2.2-10.98-3.36-16.97-3.32-6.55.04-10.58-5.03-14.68-9.34-.95-1-.95-3.28.02-4.25,3.76-3.75,6.87-8.96,13.56-7.44,8.02,1.83,16.16.69,24.25.91,10.5.29,14.08,3.78,13.95,14.21Z"/><path class="cls-6" d="m638.18,913.22c-12.46-2.88-19.03-9.36-20.05-19.77-.84-8.54,4.25-17.45,12.08-21.15,7.72-3.65,18.21-2.44,23.69,3.89,2.16,2.5,4.1,5.18,6.14,7.78-.47,5.06.99,10.25-.79,15.22-3.53,9.87-11.47,13.22-21.06,14.03Z"/><path class="cls-6" d="m673.06,845.15c-7.87,4.69-16.52,6.17-25.52,6.91-5.34.44-10.5,1.84-16.03,1.03-3.23-.47-5.22-1.55-6.46-4.43-3.67-8.51,2.84-18.82,12.03-18.85,9.81-.03,19.62.25,29.42.11,3.44-.05,5.39,2.23,7.9,3.73,1.5,4.06,1.44,7.93-1.34,11.49Z"/><path class="cls-6" d="m621.83,709.96c3.26-.15,4.29,1.72,5.39,3.55,12.08,20,21.33,41.26,28.05,63.6,1.7,5.64,2.6,11.6.76,17.58-1.18,3.84-3.78,5.92-7.6,6.05-3.69.12-4.7-2.92-5.89-5.78-3.59-8.56-3.33-17.76-4.41-26.7-1.87-15.38-5.65-30.2-11.34-44.58-1.74-4.4-3.23-8.91-4.96-13.72Z"/></g></g></svg>